<mxfile host="app.diagrams.net" modified="2021-05-07T23:08:31.913Z" agent="5.0 (Windows)" etag="ZFBJDRUxrw-1mAjHQa5t" version="14.6.10" type="github" pages="4">
  <diagram id="izxrAAW67C-7VGkX5i38" name="UML Notes">
    <mxGraphModel dx="1422" dy="802" grid="1" gridSize="10" guides="1" tooltips="1" connect="1" arrows="1" fold="1" page="0" pageScale="1" pageWidth="850" pageHeight="1100" math="0" shadow="0">
      <root>
        <mxCell id="0" />
        <mxCell id="1" parent="0" />
        <mxCell id="ggjc38EF2CyogS9AeZ9P-1" value="Classname" style="swimlane;fontStyle=1;align=center;verticalAlign=top;childLayout=stackLayout;horizontal=1;startSize=26;horizontalStack=0;resizeParent=1;resizeParentMax=0;resizeLast=0;collapsible=1;marginBottom=0;" parent="1" vertex="1">
          <mxGeometry x="10" y="20" width="160" height="86" as="geometry" />
        </mxCell>
        <mxCell id="ggjc38EF2CyogS9AeZ9P-2" value="+ field: type" style="text;strokeColor=none;fillColor=none;align=left;verticalAlign=top;spacingLeft=4;spacingRight=4;overflow=hidden;rotatable=0;points=[[0,0.5],[1,0.5]];portConstraint=eastwest;" parent="ggjc38EF2CyogS9AeZ9P-1" vertex="1">
          <mxGeometry y="26" width="160" height="26" as="geometry" />
        </mxCell>
        <mxCell id="ggjc38EF2CyogS9AeZ9P-3" value="" style="line;strokeWidth=1;fillColor=none;align=left;verticalAlign=middle;spacingTop=-1;spacingLeft=3;spacingRight=3;rotatable=0;labelPosition=right;points=[];portConstraint=eastwest;" parent="ggjc38EF2CyogS9AeZ9P-1" vertex="1">
          <mxGeometry y="52" width="160" height="8" as="geometry" />
        </mxCell>
        <mxCell id="ggjc38EF2CyogS9AeZ9P-4" value="+ method(type): type" style="text;strokeColor=none;fillColor=none;align=left;verticalAlign=top;spacingLeft=4;spacingRight=4;overflow=hidden;rotatable=0;points=[[0,0.5],[1,0.5]];portConstraint=eastwest;" parent="ggjc38EF2CyogS9AeZ9P-1" vertex="1">
          <mxGeometry y="60" width="160" height="26" as="geometry" />
        </mxCell>
        <mxCell id="ggjc38EF2CyogS9AeZ9P-5" value="Dog" style="swimlane;fontStyle=1;align=center;verticalAlign=top;childLayout=stackLayout;horizontal=1;startSize=26;horizontalStack=0;resizeParent=1;resizeParentMax=0;resizeLast=0;collapsible=1;marginBottom=0;" parent="1" vertex="1">
          <mxGeometry x="180" y="20" width="160" height="150" as="geometry" />
        </mxCell>
        <mxCell id="ggjc38EF2CyogS9AeZ9P-6" value="canine: true&#xa;name: string&#xa;owner: string&#xa;legs: number&#xa;age: number" style="text;strokeColor=none;fillColor=none;align=left;verticalAlign=top;spacingLeft=4;spacingRight=4;overflow=hidden;rotatable=0;points=[[0,0.5],[1,0.5]];portConstraint=eastwest;" parent="ggjc38EF2CyogS9AeZ9P-5" vertex="1">
          <mxGeometry y="26" width="160" height="74" as="geometry" />
        </mxCell>
        <mxCell id="ggjc38EF2CyogS9AeZ9P-7" value="" style="line;strokeWidth=1;fillColor=none;align=left;verticalAlign=middle;spacingTop=-1;spacingLeft=3;spacingRight=3;rotatable=0;labelPosition=right;points=[];portConstraint=eastwest;" parent="ggjc38EF2CyogS9AeZ9P-5" vertex="1">
          <mxGeometry y="100" width="160" height="8" as="geometry" />
        </mxCell>
        <mxCell id="ggjc38EF2CyogS9AeZ9P-8" value="getOlder() : void&#xa;bark(loudness, pitch): Bark" style="text;strokeColor=none;fillColor=none;align=left;verticalAlign=top;spacingLeft=4;spacingRight=4;overflow=hidden;rotatable=0;points=[[0,0.5],[1,0.5]];portConstraint=eastwest;" parent="ggjc38EF2CyogS9AeZ9P-5" vertex="1">
          <mxGeometry y="108" width="160" height="42" as="geometry" />
        </mxCell>
        <mxCell id="ggjc38EF2CyogS9AeZ9P-9" value="" style="endArrow=classic;html=1;entryX=1;entryY=0.5;entryDx=0;entryDy=0;" parent="1" target="ggjc38EF2CyogS9AeZ9P-6" edge="1">
          <mxGeometry width="50" height="50" relative="1" as="geometry">
            <mxPoint x="380" y="83" as="sourcePoint" />
            <mxPoint x="450" y="380" as="targetPoint" />
          </mxGeometry>
        </mxCell>
        <mxCell id="ggjc38EF2CyogS9AeZ9P-11" value="Properties of the object &quot;Dog&quot;" style="text;html=1;align=center;verticalAlign=middle;resizable=0;points=[];autosize=1;" parent="1" vertex="1">
          <mxGeometry x="380" y="70" width="170" height="20" as="geometry" />
        </mxCell>
        <mxCell id="ggjc38EF2CyogS9AeZ9P-12" value="" style="endArrow=classic;html=1;entryX=1.004;entryY=0.384;entryDx=0;entryDy=0;entryPerimeter=0;" parent="1" target="ggjc38EF2CyogS9AeZ9P-8" edge="1">
          <mxGeometry width="50" height="50" relative="1" as="geometry">
            <mxPoint x="380" y="144" as="sourcePoint" />
            <mxPoint x="350" y="190" as="targetPoint" />
          </mxGeometry>
        </mxCell>
        <mxCell id="ggjc38EF2CyogS9AeZ9P-13" value="functions(methods or actions), their arguments passed, &lt;br&gt;and their return type" style="text;html=1;align=left;verticalAlign=middle;resizable=0;points=[];autosize=1;" parent="1" vertex="1">
          <mxGeometry x="380" y="130" width="310" height="30" as="geometry" />
        </mxCell>
        <mxCell id="ggjc38EF2CyogS9AeZ9P-14" value="f(x) = 2x + 3" style="text;html=1;align=center;verticalAlign=middle;resizable=0;points=[];autosize=1;" parent="1" vertex="1">
          <mxGeometry x="150" y="280" width="80" height="20" as="geometry" />
        </mxCell>
        <mxCell id="ggjc38EF2CyogS9AeZ9P-15" value="f(3)&lt;br&gt;&lt;br&gt;9" style="text;html=1;align=center;verticalAlign=middle;resizable=0;points=[];autosize=1;" parent="1" vertex="1">
          <mxGeometry x="175" y="310" width="30" height="50" as="geometry" />
        </mxCell>
        <mxCell id="ggjc38EF2CyogS9AeZ9P-16" value="" style="endArrow=classic;html=1;entryX=0.63;entryY=0.542;entryDx=0;entryDy=0;entryPerimeter=0;" parent="1" edge="1">
          <mxGeometry width="50" height="50" relative="1" as="geometry">
            <mxPoint x="205" y="254.9999999999999" as="sourcePoint" />
            <mxPoint x="205" y="274.9999999999999" as="targetPoint" />
          </mxGeometry>
        </mxCell>
        <mxCell id="ggjc38EF2CyogS9AeZ9P-17" value="definition" style="text;html=1;align=center;verticalAlign=middle;resizable=0;points=[];autosize=1;" parent="1" vertex="1">
          <mxGeometry x="170" y="230" width="60" height="20" as="geometry" />
        </mxCell>
        <mxCell id="ggjc38EF2CyogS9AeZ9P-18" value="" style="endArrow=classic;html=1;" parent="1" target="ggjc38EF2CyogS9AeZ9P-15" edge="1">
          <mxGeometry width="50" height="50" relative="1" as="geometry">
            <mxPoint x="230" y="299.9999999999999" as="sourcePoint" />
            <mxPoint x="215" y="285" as="targetPoint" />
          </mxGeometry>
        </mxCell>
        <mxCell id="ggjc38EF2CyogS9AeZ9P-19" value="invoke&lt;br&gt;call &lt;br&gt;(use)" style="text;html=1;align=center;verticalAlign=middle;resizable=0;points=[];autosize=1;" parent="1" vertex="1">
          <mxGeometry x="230" y="280" width="50" height="50" as="geometry" />
        </mxCell>
        <mxCell id="ggjc38EF2CyogS9AeZ9P-20" value="declaration" style="text;html=1;align=center;verticalAlign=middle;resizable=0;points=[];autosize=1;" parent="1" vertex="1">
          <mxGeometry x="115" y="210" width="70" height="20" as="geometry" />
        </mxCell>
        <mxCell id="ggjc38EF2CyogS9AeZ9P-21" value="" style="endArrow=classic;html=1;exitX=0.482;exitY=1.047;exitDx=0;exitDy=0;exitPerimeter=0;entryX=0.062;entryY=0.064;entryDx=0;entryDy=0;entryPerimeter=0;" parent="1" source="ggjc38EF2CyogS9AeZ9P-20" target="ggjc38EF2CyogS9AeZ9P-14" edge="1">
          <mxGeometry width="50" height="50" relative="1" as="geometry">
            <mxPoint x="239.99999999999977" y="309.9999999999999" as="sourcePoint" />
            <mxPoint x="215" y="319.3749999999999" as="targetPoint" />
          </mxGeometry>
        </mxCell>
        <mxCell id="ggjc38EF2CyogS9AeZ9P-22" value="" style="endArrow=classic;html=1;entryX=0.757;entryY=1.077;entryDx=0;entryDy=0;entryPerimeter=0;exitX=-0.001;exitY=0.508;exitDx=0;exitDy=0;exitPerimeter=0;" parent="1" source="ggjc38EF2CyogS9AeZ9P-23" target="ggjc38EF2CyogS9AeZ9P-15" edge="1">
          <mxGeometry width="50" height="50" relative="1" as="geometry">
            <mxPoint x="220" y="350" as="sourcePoint" />
            <mxPoint x="164.96000000000004" y="291.28" as="targetPoint" />
          </mxGeometry>
        </mxCell>
        <mxCell id="ggjc38EF2CyogS9AeZ9P-23" value="return&lt;br&gt;(result)&lt;br&gt;range" style="text;html=1;align=center;verticalAlign=middle;resizable=0;points=[];autosize=1;" parent="1" vertex="1">
          <mxGeometry x="215" y="360" width="50" height="50" as="geometry" />
        </mxCell>
        <mxCell id="ggjc38EF2CyogS9AeZ9P-24" value="" style="endArrow=classic;html=1;entryX=0.209;entryY=1.167;entryDx=0;entryDy=0;entryPerimeter=0;" parent="1" target="ggjc38EF2CyogS9AeZ9P-14" edge="1">
          <mxGeometry width="50" height="50" relative="1" as="geometry">
            <mxPoint x="140" y="319.9999999999999" as="sourcePoint" />
            <mxPoint x="164.96000000000004" y="291.28" as="targetPoint" />
          </mxGeometry>
        </mxCell>
        <mxCell id="ggjc38EF2CyogS9AeZ9P-25" value="parameter&lt;br&gt;(variable)" style="text;html=1;align=center;verticalAlign=middle;resizable=0;points=[];autosize=1;" parent="1" vertex="1">
          <mxGeometry x="75" y="305" width="70" height="30" as="geometry" />
        </mxCell>
        <mxCell id="ggjc38EF2CyogS9AeZ9P-26" value="" style="endArrow=classic;html=1;entryX=0.5;entryY=0.4;entryDx=0;entryDy=0;entryPerimeter=0;" parent="1" target="ggjc38EF2CyogS9AeZ9P-15" edge="1">
          <mxGeometry width="50" height="50" relative="1" as="geometry">
            <mxPoint x="140" y="370" as="sourcePoint" />
            <mxPoint x="176.72000000000003" y="313.34000000000003" as="targetPoint" />
          </mxGeometry>
        </mxCell>
        <mxCell id="ggjc38EF2CyogS9AeZ9P-27" value="argument" style="text;html=1;align=center;verticalAlign=middle;resizable=0;points=[];autosize=1;" parent="1" vertex="1">
          <mxGeometry x="75" y="360" width="70" height="20" as="geometry" />
        </mxCell>
        <mxCell id="ggjc38EF2CyogS9AeZ9P-29" value="pass" style="text;html=1;align=center;verticalAlign=middle;resizable=0;points=[];autosize=1;" parent="1" vertex="1">
          <mxGeometry y="330" width="40" height="20" as="geometry" />
        </mxCell>
        <mxCell id="ggjc38EF2CyogS9AeZ9P-31" value="" style="endArrow=none;dashed=1;html=1;entryX=-0.012;entryY=0.675;entryDx=0;entryDy=0;entryPerimeter=0;exitX=-0.012;exitY=0.572;exitDx=0;exitDy=0;exitPerimeter=0;" parent="1" source="ggjc38EF2CyogS9AeZ9P-27" target="ggjc38EF2CyogS9AeZ9P-25" edge="1">
          <mxGeometry width="50" height="50" relative="1" as="geometry">
            <mxPoint x="390" y="320" as="sourcePoint" />
            <mxPoint x="440" y="270" as="targetPoint" />
            <Array as="points">
              <mxPoint x="40" y="350" />
            </Array>
          </mxGeometry>
        </mxCell>
        <mxCell id="ggjc38EF2CyogS9AeZ9P-32" value="method identifier(argument(s)): return type" style="text;html=1;align=center;verticalAlign=middle;resizable=0;points=[];autosize=1;" parent="1" vertex="1">
          <mxGeometry x="145" y="190" width="240" height="20" as="geometry" />
        </mxCell>
        <mxCell id="5-rsklZLqykwbbk9PffP-1" value="" style="endArrow=classic;html=1;entryX=1.02;entryY=0.734;entryDx=0;entryDy=0;entryPerimeter=0;" parent="1" target="ggjc38EF2CyogS9AeZ9P-8" edge="1">
          <mxGeometry width="50" height="50" relative="1" as="geometry">
            <mxPoint x="390" y="180" as="sourcePoint" />
            <mxPoint x="440" y="240" as="targetPoint" />
          </mxGeometry>
        </mxCell>
        <mxCell id="5-rsklZLqykwbbk9PffP-2" value="Returns a &quot;Bark&quot; object type" style="text;html=1;align=center;verticalAlign=middle;resizable=0;points=[];autosize=1;" parent="1" vertex="1">
          <mxGeometry x="385" y="170" width="170" height="20" as="geometry" />
        </mxCell>
        <mxCell id="5-rsklZLqykwbbk9PffP-3" value="Bark" style="swimlane;fontStyle=1;align=center;verticalAlign=top;childLayout=stackLayout;horizontal=1;startSize=26;horizontalStack=0;resizeParent=1;resizeParentMax=0;resizeLast=0;collapsible=1;marginBottom=0;swimlaneLine=1;" parent="1" vertex="1">
          <mxGeometry x="730" y="20" width="160" height="104" as="geometry" />
        </mxCell>
        <mxCell id="5-rsklZLqykwbbk9PffP-4" value="loudness: number&#xa;pitch: string&#xa;" style="text;strokeColor=none;fillColor=none;align=left;verticalAlign=top;spacingLeft=4;spacingRight=4;overflow=hidden;rotatable=0;points=[[0,0.5],[1,0.5]];portConstraint=eastwest;" parent="5-rsklZLqykwbbk9PffP-3" vertex="1">
          <mxGeometry y="26" width="160" height="44" as="geometry" />
        </mxCell>
        <mxCell id="5-rsklZLqykwbbk9PffP-5" value="" style="line;strokeWidth=1;fillColor=none;align=left;verticalAlign=middle;spacingTop=-1;spacingLeft=3;spacingRight=3;rotatable=0;labelPosition=right;points=[];portConstraint=eastwest;" parent="5-rsklZLqykwbbk9PffP-3" vertex="1">
          <mxGeometry y="70" width="160" height="8" as="geometry" />
        </mxCell>
        <mxCell id="5-rsklZLqykwbbk9PffP-6" value="+ method(type): type" style="text;strokeColor=none;fillColor=none;align=left;verticalAlign=top;spacingLeft=4;spacingRight=4;overflow=hidden;rotatable=0;points=[[0,0.5],[1,0.5]];portConstraint=eastwest;" parent="5-rsklZLqykwbbk9PffP-3" vertex="1">
          <mxGeometry y="78" width="160" height="26" as="geometry" />
        </mxCell>
        <mxCell id="5-rsklZLqykwbbk9PffP-7" value="" style="endArrow=classic;html=1;exitX=1.003;exitY=0.521;exitDx=0;exitDy=0;exitPerimeter=0;entryX=0;entryY=0.5;entryDx=0;entryDy=0;" parent="1" source="5-rsklZLqykwbbk9PffP-2" target="5-rsklZLqykwbbk9PffP-4" edge="1">
          <mxGeometry width="50" height="50" relative="1" as="geometry">
            <mxPoint x="650" y="270" as="sourcePoint" />
            <mxPoint x="700" y="220" as="targetPoint" />
            <Array as="points">
              <mxPoint x="690" y="170" />
            </Array>
          </mxGeometry>
        </mxCell>
      </root>
    </mxGraphModel>
  </diagram>
  <diagram id="HFbhik41EtkXGejbtrfb" name="Objects that interact">
    <mxGraphModel dx="1822" dy="802" grid="0" gridSize="10" guides="1" tooltips="1" connect="1" arrows="1" fold="1" page="0" pageScale="1" pageWidth="850" pageHeight="1100" math="0" shadow="0">
      <root>
        <mxCell id="s_1t6k1x21JJ02WUQk41-0" />
        <mxCell id="s_1t6k1x21JJ02WUQk41-1" parent="s_1t6k1x21JJ02WUQk41-0" />
        <mxCell id="s_1t6k1x21JJ02WUQk41-2" value="&lt;h1&gt;Objects that interact&lt;/h1&gt;" style="text;html=1;strokeColor=none;fillColor=none;spacing=5;spacingTop=-20;whiteSpace=wrap;overflow=hidden;rounded=0;" parent="s_1t6k1x21JJ02WUQk41-1" vertex="1">
          <mxGeometry x="20" y="50" width="250" height="40" as="geometry" />
        </mxCell>
        <mxCell id="s_1t6k1x21JJ02WUQk41-7" value="Teacher" style="swimlane;fontStyle=1;align=center;verticalAlign=top;childLayout=stackLayout;horizontal=1;startSize=26;horizontalStack=0;resizeParent=1;resizeParentMax=0;resizeLast=0;collapsible=1;marginBottom=0;" parent="s_1t6k1x21JJ02WUQk41-1" vertex="1">
          <mxGeometry x="20" y="160" width="340" height="86" as="geometry" />
        </mxCell>
        <mxCell id="s_1t6k1x21JJ02WUQk41-8" value="givesHomework: bool&#xa;" style="text;strokeColor=none;fillColor=none;align=left;verticalAlign=top;spacingLeft=4;spacingRight=4;overflow=hidden;rotatable=0;points=[[0,0.5],[1,0.5]];portConstraint=eastwest;" parent="s_1t6k1x21JJ02WUQk41-7" vertex="1">
          <mxGeometry y="26" width="340" height="26" as="geometry" />
        </mxCell>
        <mxCell id="s_1t6k1x21JJ02WUQk41-9" value="" style="line;strokeWidth=1;fillColor=none;align=left;verticalAlign=middle;spacingTop=-1;spacingLeft=3;spacingRight=3;rotatable=0;labelPosition=right;points=[];portConstraint=eastwest;" parent="s_1t6k1x21JJ02WUQk41-7" vertex="1">
          <mxGeometry y="52" width="340" height="8" as="geometry" />
        </mxCell>
        <mxCell id="s_1t6k1x21JJ02WUQk41-10" value="assignHomework(): homework" style="text;strokeColor=none;fillColor=none;align=left;verticalAlign=top;spacingLeft=4;spacingRight=4;overflow=hidden;rotatable=0;points=[[0,0.5],[1,0.5]];portConstraint=eastwest;" parent="s_1t6k1x21JJ02WUQk41-7" vertex="1">
          <mxGeometry y="60" width="340" height="26" as="geometry" />
        </mxCell>
        <mxCell id="s_1t6k1x21JJ02WUQk41-11" value="Student" style="swimlane;fontStyle=1;align=center;verticalAlign=top;childLayout=stackLayout;horizontal=1;startSize=26;horizontalStack=0;resizeParent=1;resizeParentMax=0;resizeLast=0;collapsible=1;marginBottom=0;" parent="s_1t6k1x21JJ02WUQk41-1" vertex="1">
          <mxGeometry x="430" y="160" width="240" height="111" as="geometry" />
        </mxCell>
        <mxCell id="s_1t6k1x21JJ02WUQk41-12" value="gradeLevel: number&#xa;academicLevel: number&#xa;&#xa;" style="text;strokeColor=none;fillColor=none;align=left;verticalAlign=top;spacingLeft=4;spacingRight=4;overflow=hidden;rotatable=0;points=[[0,0.5],[1,0.5]];portConstraint=eastwest;" parent="s_1t6k1x21JJ02WUQk41-11" vertex="1">
          <mxGeometry y="26" width="240" height="39" as="geometry" />
        </mxCell>
        <mxCell id="s_1t6k1x21JJ02WUQk41-13" value="" style="line;strokeWidth=1;fillColor=none;align=left;verticalAlign=middle;spacingTop=-1;spacingLeft=3;spacingRight=3;rotatable=0;labelPosition=right;points=[];portConstraint=eastwest;" parent="s_1t6k1x21JJ02WUQk41-11" vertex="1">
          <mxGeometry y="65" width="240" height="8" as="geometry" />
        </mxCell>
        <mxCell id="s_1t6k1x21JJ02WUQk41-14" value="doHomework(Homework): bool&#xa;fillOutHomework(homework): homework" style="text;strokeColor=none;fillColor=none;align=left;verticalAlign=top;spacingLeft=4;spacingRight=4;overflow=hidden;rotatable=0;points=[[0,0.5],[1,0.5]];portConstraint=eastwest;" parent="s_1t6k1x21JJ02WUQk41-11" vertex="1">
          <mxGeometry y="73" width="240" height="38" as="geometry" />
        </mxCell>
        <mxCell id="s_1t6k1x21JJ02WUQk41-15" value="Homework" style="swimlane;fontStyle=1;childLayout=stackLayout;horizontal=1;startSize=26;fillColor=none;horizontalStack=0;resizeParent=1;resizeParentMax=0;resizeLast=0;collapsible=1;marginBottom=0;" parent="s_1t6k1x21JJ02WUQk41-1" vertex="1">
          <mxGeometry x="20" y="280" width="150" height="135" as="geometry" />
        </mxCell>
        <mxCell id="s_1t6k1x21JJ02WUQk41-16" value="difficulty: number" style="text;strokeColor=none;fillColor=none;align=left;verticalAlign=top;spacingLeft=4;spacingRight=4;overflow=hidden;rotatable=0;points=[[0,0.5],[1,0.5]];portConstraint=eastwest;" parent="s_1t6k1x21JJ02WUQk41-15" vertex="1">
          <mxGeometry y="26" width="150" height="26" as="geometry" />
        </mxCell>
        <mxCell id="s_1t6k1x21JJ02WUQk41-17" value="subject: string" style="text;strokeColor=none;fillColor=none;align=left;verticalAlign=top;spacingLeft=4;spacingRight=4;overflow=hidden;rotatable=0;points=[[0,0.5],[1,0.5]];portConstraint=eastwest;" parent="s_1t6k1x21JJ02WUQk41-15" vertex="1">
          <mxGeometry y="52" width="150" height="28" as="geometry" />
        </mxCell>
        <mxCell id="s_1t6k1x21JJ02WUQk41-19" value="homeworkFinished: bool" style="text;strokeColor=none;fillColor=none;align=left;verticalAlign=top;spacingLeft=4;spacingRight=4;overflow=hidden;rotatable=0;points=[[0,0.5],[1,0.5]];portConstraint=eastwest;" parent="s_1t6k1x21JJ02WUQk41-15" vertex="1">
          <mxGeometry y="80" width="150" height="29" as="geometry" />
        </mxCell>
        <mxCell id="_u28TQLZVJ7jKI38-Mz2-35" value="question[ ]: Question" style="text;strokeColor=none;fillColor=none;align=left;verticalAlign=top;spacingLeft=4;spacingRight=4;overflow=hidden;rotatable=0;points=[[0,0.5],[1,0.5]];portConstraint=eastwest;" parent="s_1t6k1x21JJ02WUQk41-15" vertex="1">
          <mxGeometry y="109" width="150" height="26" as="geometry" />
        </mxCell>
        <mxCell id="mYS3J9SjXnX4Xh6v5t4f-0" value="if seniorStudent.gradeLevel = 12&lt;br&gt;and&lt;br&gt;calculusTeacher.givesHomework = true&lt;br&gt;&lt;br&gt;then&lt;br&gt;&lt;br&gt;seniorStudent.turnInHomework(doHomework(((calculusTeacher.assignHomework())))" style="text;html=1;strokeColor=none;fillColor=none;align=center;verticalAlign=middle;whiteSpace=wrap;rounded=0;" parent="s_1t6k1x21JJ02WUQk41-1" vertex="1">
          <mxGeometry x="1034" y="43" width="340" height="90" as="geometry" />
        </mxCell>
        <mxCell id="3BieHv0Uvj4uVbpqDDp2-0" value="&lt;div&gt;teacher.assignHomework()&lt;/div&gt;" style="text;html=1;strokeColor=none;fillColor=none;align=center;verticalAlign=middle;whiteSpace=wrap;rounded=0;" parent="s_1t6k1x21JJ02WUQk41-1" vertex="1">
          <mxGeometry x="310.25" y="367" width="171.5" height="20" as="geometry" />
        </mxCell>
        <mxCell id="3BieHv0Uvj4uVbpqDDp2-66" style="edgeStyle=orthogonalEdgeStyle;rounded=0;orthogonalLoop=1;jettySize=auto;html=1;exitX=0.5;exitY=1;exitDx=0;exitDy=0;" parent="s_1t6k1x21JJ02WUQk41-1" source="3BieHv0Uvj4uVbpqDDp2-26" edge="1">
          <mxGeometry relative="1" as="geometry">
            <mxPoint x="81.83333333333348" y="907.6666666666667" as="targetPoint" />
          </mxGeometry>
        </mxCell>
        <mxCell id="3BieHv0Uvj4uVbpqDDp2-26" value="create Homework object" style="rounded=0;whiteSpace=wrap;html=1;sketch=0;fillColor=#FFFFFF;" parent="s_1t6k1x21JJ02WUQk41-1" vertex="1">
          <mxGeometry x="12" y="789" width="140" height="40" as="geometry" />
        </mxCell>
        <mxCell id="3BieHv0Uvj4uVbpqDDp2-28" value="&lt;div&gt;student.doHomework(Homework)&lt;/div&gt;" style="text;html=1;strokeColor=none;fillColor=none;align=center;verticalAlign=middle;whiteSpace=wrap;rounded=0;" parent="s_1t6k1x21JJ02WUQk41-1" vertex="1">
          <mxGeometry x="782" y="419" width="121" height="20" as="geometry" />
        </mxCell>
        <mxCell id="3BieHv0Uvj4uVbpqDDp2-31" value="" style="endArrow=none;html=1;entryX=0.5;entryY=1;entryDx=0;entryDy=0;" parent="s_1t6k1x21JJ02WUQk41-1" target="3BieHv0Uvj4uVbpqDDp2-44" edge="1">
          <mxGeometry width="50" height="50" relative="1" as="geometry">
            <mxPoint x="841" y="534" as="sourcePoint" />
            <mxPoint x="841" y="489" as="targetPoint" />
          </mxGeometry>
        </mxCell>
        <mxCell id="3BieHv0Uvj4uVbpqDDp2-57" style="edgeStyle=orthogonalEdgeStyle;rounded=0;orthogonalLoop=1;jettySize=auto;html=1;exitX=0.5;exitY=1;exitDx=0;exitDy=0;entryX=0.5;entryY=0;entryDx=0;entryDy=0;" parent="s_1t6k1x21JJ02WUQk41-1" source="3BieHv0Uvj4uVbpqDDp2-41" target="3BieHv0Uvj4uVbpqDDp2-56" edge="1">
          <mxGeometry relative="1" as="geometry" />
        </mxCell>
        <mxCell id="3BieHv0Uvj4uVbpqDDp2-41" value="teacher.gradeWork(Homework)" style="rounded=0;whiteSpace=wrap;html=1;sketch=0;fillColor=#FFFFFF;" parent="s_1t6k1x21JJ02WUQk41-1" vertex="1">
          <mxGeometry x="-166" y="1181" width="200" height="40" as="geometry" />
        </mxCell>
        <mxCell id="3BieHv0Uvj4uVbpqDDp2-46" style="edgeStyle=orthogonalEdgeStyle;rounded=0;orthogonalLoop=1;jettySize=auto;html=1;exitX=0.5;exitY=1;exitDx=0;exitDy=0;entryX=0.5;entryY=0;entryDx=0;entryDy=0;" parent="s_1t6k1x21JJ02WUQk41-1" source="3BieHv0Uvj4uVbpqDDp2-43" target="3BieHv0Uvj4uVbpqDDp2-45" edge="1">
          <mxGeometry relative="1" as="geometry" />
        </mxCell>
        <mxCell id="3BieHv0Uvj4uVbpqDDp2-43" value="" style="ellipse;fillColor=#000000;strokeColor=none;sketch=0;" parent="s_1t6k1x21JJ02WUQk41-1" vertex="1">
          <mxGeometry x="381" y="389" width="30" height="30" as="geometry" />
        </mxCell>
        <mxCell id="3BieHv0Uvj4uVbpqDDp2-44" value="" style="ellipse;fillColor=#000000;strokeColor=none;sketch=0;" parent="s_1t6k1x21JJ02WUQk41-1" vertex="1">
          <mxGeometry x="826" y="439" width="30" height="30" as="geometry" />
        </mxCell>
        <mxCell id="3BieHv0Uvj4uVbpqDDp2-47" style="edgeStyle=orthogonalEdgeStyle;rounded=0;orthogonalLoop=1;jettySize=auto;html=1;exitX=0;exitY=0.5;exitDx=0;exitDy=0;entryX=0.5;entryY=0;entryDx=0;entryDy=0;" parent="s_1t6k1x21JJ02WUQk41-1" source="3BieHv0Uvj4uVbpqDDp2-45" edge="1">
          <mxGeometry relative="1" as="geometry">
            <mxPoint x="238.5" y="619" as="targetPoint" />
          </mxGeometry>
        </mxCell>
        <mxCell id="3BieHv0Uvj4uVbpqDDp2-48" value="true" style="edgeLabel;html=1;align=center;verticalAlign=middle;resizable=0;points=[];" parent="3BieHv0Uvj4uVbpqDDp2-47" vertex="1" connectable="0">
          <mxGeometry x="-0.5675" y="-1" relative="1" as="geometry">
            <mxPoint as="offset" />
          </mxGeometry>
        </mxCell>
        <mxCell id="3BieHv0Uvj4uVbpqDDp2-45" value="student.gradeLevel == 12" style="rhombus;sketch=0;fillColor=#FFFFFF;" parent="s_1t6k1x21JJ02WUQk41-1" vertex="1">
          <mxGeometry x="316" y="439" width="160" height="95" as="geometry" />
        </mxCell>
        <mxCell id="3BieHv0Uvj4uVbpqDDp2-49" style="edgeStyle=orthogonalEdgeStyle;rounded=0;orthogonalLoop=1;jettySize=auto;html=1;exitX=0;exitY=0.5;exitDx=0;exitDy=0;" parent="s_1t6k1x21JJ02WUQk41-1" edge="1">
          <mxGeometry relative="1" as="geometry">
            <mxPoint x="554" y="629" as="targetPoint" />
            <mxPoint x="476" y="491.5" as="sourcePoint" />
          </mxGeometry>
        </mxCell>
        <mxCell id="3BieHv0Uvj4uVbpqDDp2-50" value="false" style="edgeLabel;html=1;align=center;verticalAlign=middle;resizable=0;points=[];" parent="3BieHv0Uvj4uVbpqDDp2-49" vertex="1" connectable="0">
          <mxGeometry x="-0.5675" y="-1" relative="1" as="geometry">
            <mxPoint as="offset" />
          </mxGeometry>
        </mxCell>
        <mxCell id="3BieHv0Uvj4uVbpqDDp2-51" value="" style="ellipse;html=1;shape=endState;fillColor=#000000;strokeColor=#000000;sketch=0;" parent="s_1t6k1x21JJ02WUQk41-1" vertex="1">
          <mxGeometry x="539" y="629" width="30" height="30" as="geometry" />
        </mxCell>
        <mxCell id="3BieHv0Uvj4uVbpqDDp2-68" style="edgeStyle=orthogonalEdgeStyle;rounded=0;orthogonalLoop=1;jettySize=auto;html=1;exitX=0.5;exitY=1;exitDx=0;exitDy=0;" parent="s_1t6k1x21JJ02WUQk41-1" source="3BieHv0Uvj4uVbpqDDp2-53" edge="1">
          <mxGeometry relative="1" as="geometry">
            <mxPoint x="91.83333333333348" y="996.8333333333335" as="targetPoint" />
          </mxGeometry>
        </mxCell>
        <mxCell id="3BieHv0Uvj4uVbpqDDp2-53" value="student.doHomework(Homework)" style="rounded=0;whiteSpace=wrap;html=1;sketch=0;fillColor=#FFFFFF;" parent="s_1t6k1x21JJ02WUQk41-1" vertex="1">
          <mxGeometry x="-8" y="909" width="200" height="40" as="geometry" />
        </mxCell>
        <mxCell id="3BieHv0Uvj4uVbpqDDp2-56" value="" style="ellipse;html=1;shape=endState;fillColor=#000000;strokeColor=#000000;sketch=0;" parent="s_1t6k1x21JJ02WUQk41-1" vertex="1">
          <mxGeometry x="-81" y="1262" width="30" height="30" as="geometry" />
        </mxCell>
        <mxCell id="3BieHv0Uvj4uVbpqDDp2-58" value="teacher.givesHomework" style="rhombus;sketch=0;fillColor=#FFFFFF;" parent="s_1t6k1x21JJ02WUQk41-1" vertex="1">
          <mxGeometry x="160" y="618" width="160" height="77" as="geometry" />
        </mxCell>
        <mxCell id="3BieHv0Uvj4uVbpqDDp2-59" style="edgeStyle=orthogonalEdgeStyle;rounded=0;orthogonalLoop=1;jettySize=auto;html=1;exitX=0;exitY=0.5;exitDx=0;exitDy=0;entryX=0.5;entryY=0;entryDx=0;entryDy=0;" parent="s_1t6k1x21JJ02WUQk41-1" edge="1">
          <mxGeometry relative="1" as="geometry">
            <mxPoint x="82.5" y="788.5" as="targetPoint" />
            <mxPoint x="160" y="656" as="sourcePoint" />
          </mxGeometry>
        </mxCell>
        <mxCell id="3BieHv0Uvj4uVbpqDDp2-60" value="true" style="edgeLabel;html=1;align=center;verticalAlign=middle;resizable=0;points=[];" parent="3BieHv0Uvj4uVbpqDDp2-59" vertex="1" connectable="0">
          <mxGeometry x="-0.5675" y="-1" relative="1" as="geometry">
            <mxPoint as="offset" />
          </mxGeometry>
        </mxCell>
        <mxCell id="3BieHv0Uvj4uVbpqDDp2-62" style="edgeStyle=orthogonalEdgeStyle;rounded=0;orthogonalLoop=1;jettySize=auto;html=1;exitX=0;exitY=0.5;exitDx=0;exitDy=0;" parent="s_1t6k1x21JJ02WUQk41-1" edge="1">
          <mxGeometry relative="1" as="geometry">
            <mxPoint x="397.75" y="794.5" as="targetPoint" />
            <mxPoint x="319.75" y="657" as="sourcePoint" />
          </mxGeometry>
        </mxCell>
        <mxCell id="3BieHv0Uvj4uVbpqDDp2-63" value="false" style="edgeLabel;html=1;align=center;verticalAlign=middle;resizable=0;points=[];" parent="3BieHv0Uvj4uVbpqDDp2-62" vertex="1" connectable="0">
          <mxGeometry x="-0.5675" y="-1" relative="1" as="geometry">
            <mxPoint as="offset" />
          </mxGeometry>
        </mxCell>
        <mxCell id="3BieHv0Uvj4uVbpqDDp2-64" value="" style="ellipse;html=1;shape=endState;fillColor=#000000;strokeColor=#000000;sketch=0;" parent="s_1t6k1x21JJ02WUQk41-1" vertex="1">
          <mxGeometry x="384" y="794" width="30" height="30" as="geometry" />
        </mxCell>
        <mxCell id="3BieHv0Uvj4uVbpqDDp2-67" value="Homework.homeworkFinished" style="rhombus;sketch=0;fillColor=#FFFFFF;" parent="s_1t6k1x21JJ02WUQk41-1" vertex="1">
          <mxGeometry x="12" y="999" width="185" height="93" as="geometry" />
        </mxCell>
        <mxCell id="3BieHv0Uvj4uVbpqDDp2-69" style="edgeStyle=orthogonalEdgeStyle;rounded=0;orthogonalLoop=1;jettySize=auto;html=1;exitX=0;exitY=0.5;exitDx=0;exitDy=0;entryX=0.5;entryY=0;entryDx=0;entryDy=0;" parent="s_1t6k1x21JJ02WUQk41-1" edge="1">
          <mxGeometry relative="1" as="geometry">
            <mxPoint x="-65.5" y="1179.5" as="targetPoint" />
            <mxPoint x="11.999999999999773" y="1047" as="sourcePoint" />
          </mxGeometry>
        </mxCell>
        <mxCell id="3BieHv0Uvj4uVbpqDDp2-70" value="true" style="edgeLabel;html=1;align=center;verticalAlign=middle;resizable=0;points=[];" parent="3BieHv0Uvj4uVbpqDDp2-69" vertex="1" connectable="0">
          <mxGeometry x="-0.5675" y="-1" relative="1" as="geometry">
            <mxPoint as="offset" />
          </mxGeometry>
        </mxCell>
        <mxCell id="3BieHv0Uvj4uVbpqDDp2-71" style="edgeStyle=orthogonalEdgeStyle;rounded=0;orthogonalLoop=1;jettySize=auto;html=1;exitX=0;exitY=0.5;exitDx=0;exitDy=0;" parent="s_1t6k1x21JJ02WUQk41-1" edge="1">
          <mxGeometry relative="1" as="geometry">
            <mxPoint x="275" y="1184" as="targetPoint" />
            <mxPoint x="197" y="1046.5" as="sourcePoint" />
          </mxGeometry>
        </mxCell>
        <mxCell id="3BieHv0Uvj4uVbpqDDp2-72" value="false" style="edgeLabel;html=1;align=center;verticalAlign=middle;resizable=0;points=[];" parent="3BieHv0Uvj4uVbpqDDp2-71" vertex="1" connectable="0">
          <mxGeometry x="-0.5675" y="-1" relative="1" as="geometry">
            <mxPoint as="offset" />
          </mxGeometry>
        </mxCell>
        <mxCell id="3BieHv0Uvj4uVbpqDDp2-73" value="" style="ellipse;html=1;shape=endState;fillColor=#000000;strokeColor=#000000;sketch=0;" parent="s_1t6k1x21JJ02WUQk41-1" vertex="1">
          <mxGeometry x="259" y="1186" width="30" height="30" as="geometry" />
        </mxCell>
        <mxCell id="3BieHv0Uvj4uVbpqDDp2-75" value="teacher.gradeWork(Homework)" style="text;html=1;strokeColor=none;fillColor=none;align=center;verticalAlign=middle;whiteSpace=wrap;rounded=0;" parent="s_1t6k1x21JJ02WUQk41-1" vertex="1">
          <mxGeometry x="785" y="939" width="112" height="20" as="geometry" />
        </mxCell>
        <mxCell id="3BieHv0Uvj4uVbpqDDp2-76" value="" style="endArrow=none;html=1;entryX=0.5;entryY=1;entryDx=0;entryDy=0;" parent="s_1t6k1x21JJ02WUQk41-1" target="3BieHv0Uvj4uVbpqDDp2-77" edge="1">
          <mxGeometry width="50" height="50" relative="1" as="geometry">
            <mxPoint x="844" y="1054" as="sourcePoint" />
            <mxPoint x="844" y="1009" as="targetPoint" />
          </mxGeometry>
        </mxCell>
        <mxCell id="3BieHv0Uvj4uVbpqDDp2-77" value="" style="ellipse;fillColor=#000000;strokeColor=none;sketch=0;" parent="s_1t6k1x21JJ02WUQk41-1" vertex="1">
          <mxGeometry x="829" y="959" width="30" height="30" as="geometry" />
        </mxCell>
        <mxCell id="3BieHv0Uvj4uVbpqDDp2-78" value="student.academicLevel &gt;= 10" style="rhombus;sketch=0;fillColor=#FFFFFF;" parent="s_1t6k1x21JJ02WUQk41-1" vertex="1">
          <mxGeometry x="749.5" y="534" width="183" height="78" as="geometry" />
        </mxCell>
        <mxCell id="3BieHv0Uvj4uVbpqDDp2-79" style="edgeStyle=orthogonalEdgeStyle;rounded=0;orthogonalLoop=1;jettySize=auto;html=1;exitX=0;exitY=0.5;exitDx=0;exitDy=0;entryX=0.5;entryY=0;entryDx=0;entryDy=0;" parent="s_1t6k1x21JJ02WUQk41-1" edge="1">
          <mxGeometry relative="1" as="geometry">
            <mxPoint x="672" y="706.5" as="targetPoint" />
            <mxPoint x="749.5" y="574" as="sourcePoint" />
          </mxGeometry>
        </mxCell>
        <mxCell id="3BieHv0Uvj4uVbpqDDp2-80" value="true" style="edgeLabel;html=1;align=center;verticalAlign=middle;resizable=0;points=[];" parent="3BieHv0Uvj4uVbpqDDp2-79" vertex="1" connectable="0">
          <mxGeometry x="-0.5675" y="-1" relative="1" as="geometry">
            <mxPoint as="offset" />
          </mxGeometry>
        </mxCell>
        <mxCell id="3BieHv0Uvj4uVbpqDDp2-81" style="edgeStyle=orthogonalEdgeStyle;rounded=0;orthogonalLoop=1;jettySize=auto;html=1;exitX=0;exitY=0.5;exitDx=0;exitDy=0;" parent="s_1t6k1x21JJ02WUQk41-1" edge="1">
          <mxGeometry relative="1" as="geometry">
            <mxPoint x="1010.5" y="710.5" as="targetPoint" />
            <mxPoint x="932.5" y="573" as="sourcePoint" />
          </mxGeometry>
        </mxCell>
        <mxCell id="3BieHv0Uvj4uVbpqDDp2-82" value="false" style="edgeLabel;html=1;align=center;verticalAlign=middle;resizable=0;points=[];" parent="3BieHv0Uvj4uVbpqDDp2-81" vertex="1" connectable="0">
          <mxGeometry x="-0.5675" y="-1" relative="1" as="geometry">
            <mxPoint as="offset" />
          </mxGeometry>
        </mxCell>
        <mxCell id="8w2AzW_U2LVOqzFq7Nyg-12" style="edgeStyle=orthogonalEdgeStyle;rounded=0;orthogonalLoop=1;jettySize=auto;html=1;entryX=0.5;entryY=0;entryDx=0;entryDy=0;" parent="s_1t6k1x21JJ02WUQk41-1" source="3BieHv0Uvj4uVbpqDDp2-86" target="8w2AzW_U2LVOqzFq7Nyg-11" edge="1">
          <mxGeometry relative="1" as="geometry" />
        </mxCell>
        <mxCell id="3BieHv0Uvj4uVbpqDDp2-86" value="Homework.homeworkFinished = false" style="rounded=0;whiteSpace=wrap;html=1;sketch=0;fillColor=#FFFFFF;" parent="s_1t6k1x21JJ02WUQk41-1" vertex="1">
          <mxGeometry x="906" y="712" width="218" height="40" as="geometry" />
        </mxCell>
        <mxCell id="3BieHv0Uvj4uVbpqDDp2-88" value="&lt;div&gt;&lt;i&gt;academicLevel would have to be calculated using a bunch of factors&lt;/i&gt;&lt;/div&gt;&lt;div&gt;&lt;i&gt;like general intelligence, effort twords classes, knowledge of certain subjects, etc...&lt;br&gt;&lt;/i&gt;&lt;/div&gt;" style="text;html=1;align=center;verticalAlign=middle;resizable=0;points=[];autosize=1;" parent="s_1t6k1x21JJ02WUQk41-1" vertex="1">
          <mxGeometry x="690" y="224" width="455" height="32" as="geometry" />
        </mxCell>
        <mxCell id="8w2AzW_U2LVOqzFq7Nyg-8" style="edgeStyle=orthogonalEdgeStyle;rounded=0;orthogonalLoop=1;jettySize=auto;html=1;entryX=0.5;entryY=0;entryDx=0;entryDy=0;" parent="s_1t6k1x21JJ02WUQk41-1" target="8w2AzW_U2LVOqzFq7Nyg-6" edge="1">
          <mxGeometry relative="1" as="geometry">
            <mxPoint x="846" y="1153" as="sourcePoint" />
          </mxGeometry>
        </mxCell>
        <mxCell id="8w2AzW_U2LVOqzFq7Nyg-10" style="edgeStyle=orthogonalEdgeStyle;rounded=0;orthogonalLoop=1;jettySize=auto;html=1;" parent="s_1t6k1x21JJ02WUQk41-1" edge="1">
          <mxGeometry relative="1" as="geometry">
            <mxPoint x="844" y="1125" as="targetPoint" />
            <mxPoint x="844" y="1083" as="sourcePoint" />
          </mxGeometry>
        </mxCell>
        <mxCell id="8w2AzW_U2LVOqzFq7Nyg-1" value="" style="ellipse;html=1;shape=endState;fillColor=#000000;strokeColor=#000000;sketch=0;" parent="s_1t6k1x21JJ02WUQk41-1" vertex="1">
          <mxGeometry x="672" y="789" width="30" height="30" as="geometry" />
        </mxCell>
        <mxCell id="8w2AzW_U2LVOqzFq7Nyg-6" value="" style="ellipse;html=1;shape=endState;fillColor=#000000;strokeColor=#000000;sketch=0;" parent="s_1t6k1x21JJ02WUQk41-1" vertex="1">
          <mxGeometry x="831" y="1211" width="30" height="30" as="geometry" />
        </mxCell>
        <mxCell id="8w2AzW_U2LVOqzFq7Nyg-11" value="" style="ellipse;html=1;shape=endState;fillColor=#000000;strokeColor=#000000;sketch=0;" parent="s_1t6k1x21JJ02WUQk41-1" vertex="1">
          <mxGeometry x="1000" y="794" width="30" height="30" as="geometry" />
        </mxCell>
        <mxCell id="8w2AzW_U2LVOqzFq7Nyg-18" style="edgeStyle=orthogonalEdgeStyle;rounded=0;orthogonalLoop=1;jettySize=auto;html=1;entryX=0.5;entryY=0;entryDx=0;entryDy=0;" parent="s_1t6k1x21JJ02WUQk41-1" source="8w2AzW_U2LVOqzFq7Nyg-17" target="8w2AzW_U2LVOqzFq7Nyg-1" edge="1">
          <mxGeometry relative="1" as="geometry" />
        </mxCell>
        <mxCell id="8w2AzW_U2LVOqzFq7Nyg-17" value="student.fillOutHomework(Homework)" style="rounded=0;whiteSpace=wrap;html=1;sketch=0;fillColor=#FFFFFF;" parent="s_1t6k1x21JJ02WUQk41-1" vertex="1">
          <mxGeometry x="584" y="712" width="206" height="40" as="geometry" />
        </mxCell>
        <mxCell id="8w2AzW_U2LVOqzFq7Nyg-19" value="compare Homework object with a correct Homework object " style="rounded=0;whiteSpace=wrap;html=1;sketch=0;fillColor=#FFFFFF;" parent="s_1t6k1x21JJ02WUQk41-1" vertex="1">
          <mxGeometry x="749.5" y="1041" width="189.75" height="40" as="geometry" />
        </mxCell>
        <mxCell id="8w2AzW_U2LVOqzFq7Nyg-20" value="pass grade into grade book" style="rounded=0;whiteSpace=wrap;html=1;sketch=0;fillColor=#FFFFFF;" parent="s_1t6k1x21JJ02WUQk41-1" vertex="1">
          <mxGeometry x="761.25" y="1125" width="162.5" height="32" as="geometry" />
        </mxCell>
        <mxCell id="_u28TQLZVJ7jKI38-Mz2-48" style="edgeStyle=orthogonalEdgeStyle;rounded=0;orthogonalLoop=1;jettySize=auto;html=1;exitX=0.5;exitY=1;exitDx=0;exitDy=0;" parent="s_1t6k1x21JJ02WUQk41-1" source="_u28TQLZVJ7jKI38-Mz2-0" target="_u28TQLZVJ7jKI38-Mz2-47" edge="1">
          <mxGeometry relative="1" as="geometry" />
        </mxCell>
        <mxCell id="_u28TQLZVJ7jKI38-Mz2-0" value="" style="ellipse;fillColor=#000000;strokeColor=none;sketch=0;" parent="s_1t6k1x21JJ02WUQk41-1" vertex="1">
          <mxGeometry x="1597.69" y="469" width="30" height="30" as="geometry" />
        </mxCell>
        <mxCell id="_u28TQLZVJ7jKI38-Mz2-1" value="student.fillOutHomework(Homework)" style="text;html=1;strokeColor=none;fillColor=none;align=center;verticalAlign=middle;whiteSpace=wrap;rounded=0;" parent="s_1t6k1x21JJ02WUQk41-1" vertex="1">
          <mxGeometry x="1552.19" y="439" width="121" height="20" as="geometry" />
        </mxCell>
        <mxCell id="_u28TQLZVJ7jKI38-Mz2-78" style="edgeStyle=orthogonalEdgeStyle;rounded=0;orthogonalLoop=1;jettySize=auto;html=1;exitX=1;exitY=0.5;exitDx=0;exitDy=0;" parent="s_1t6k1x21JJ02WUQk41-1" source="_u28TQLZVJ7jKI38-Mz2-37" target="_u28TQLZVJ7jKI38-Mz2-69" edge="1">
          <mxGeometry relative="1" as="geometry" />
        </mxCell>
        <mxCell id="_u28TQLZVJ7jKI38-Mz2-37" value="Homework.question [index].answer = true " style="rounded=0;whiteSpace=wrap;html=1;" parent="s_1t6k1x21JJ02WUQk41-1" vertex="1">
          <mxGeometry x="1034" y="1062" width="166.5" height="45" as="geometry" />
        </mxCell>
        <mxCell id="_u28TQLZVJ7jKI38-Mz2-42" value="Question" style="swimlane;fontStyle=1;childLayout=stackLayout;horizontal=1;startSize=26;fillColor=none;horizontalStack=0;resizeParent=1;resizeParentMax=0;resizeLast=0;collapsible=1;marginBottom=0;" parent="s_1t6k1x21JJ02WUQk41-1" vertex="1">
          <mxGeometry x="180" y="282" width="140" height="104" as="geometry" />
        </mxCell>
        <mxCell id="_u28TQLZVJ7jKI38-Mz2-46" value="prompt: string" style="text;strokeColor=none;fillColor=none;align=left;verticalAlign=top;spacingLeft=4;spacingRight=4;overflow=hidden;rotatable=0;points=[[0,0.5],[1,0.5]];portConstraint=eastwest;" parent="_u28TQLZVJ7jKI38-Mz2-42" vertex="1">
          <mxGeometry y="26" width="140" height="26" as="geometry" />
        </mxCell>
        <mxCell id="_u28TQLZVJ7jKI38-Mz2-43" value="answer: bool" style="text;strokeColor=none;fillColor=none;align=left;verticalAlign=top;spacingLeft=4;spacingRight=4;overflow=hidden;rotatable=0;points=[[0,0.5],[1,0.5]];portConstraint=eastwest;" parent="_u28TQLZVJ7jKI38-Mz2-42" vertex="1">
          <mxGeometry y="52" width="140" height="26" as="geometry" />
        </mxCell>
        <mxCell id="_u28TQLZVJ7jKI38-Mz2-50" value="minRequiredAL: number" style="text;strokeColor=none;fillColor=none;align=left;verticalAlign=top;spacingLeft=4;spacingRight=4;overflow=hidden;rotatable=0;points=[[0,0.5],[1,0.5]];portConstraint=eastwest;" parent="_u28TQLZVJ7jKI38-Mz2-42" vertex="1">
          <mxGeometry y="78" width="140" height="26" as="geometry" />
        </mxCell>
        <mxCell id="_u28TQLZVJ7jKI38-Mz2-52" style="edgeStyle=orthogonalEdgeStyle;rounded=0;orthogonalLoop=1;jettySize=auto;html=1;exitX=0.5;exitY=1;exitDx=0;exitDy=0;" parent="s_1t6k1x21JJ02WUQk41-1" source="_u28TQLZVJ7jKI38-Mz2-47" edge="1">
          <mxGeometry relative="1" as="geometry">
            <mxPoint x="1611.974482758621" y="637.8620689655172" as="targetPoint" />
          </mxGeometry>
        </mxCell>
        <mxCell id="_u28TQLZVJ7jKI38-Mz2-47" value="create index: number with 0 as initial value" style="rounded=0;whiteSpace=wrap;html=1;" parent="s_1t6k1x21JJ02WUQk41-1" vertex="1">
          <mxGeometry x="1552.19" y="535" width="120" height="60" as="geometry" />
        </mxCell>
        <mxCell id="_u28TQLZVJ7jKI38-Mz2-51" style="edgeStyle=orthogonalEdgeStyle;rounded=0;orthogonalLoop=1;jettySize=auto;html=1;exitX=0;exitY=0.5;exitDx=0;exitDy=0;entryX=0.371;entryY=0.027;entryDx=0;entryDy=0;entryPerimeter=0;" parent="s_1t6k1x21JJ02WUQk41-1" source="_u28TQLZVJ7jKI38-Mz2-49" target="_u28TQLZVJ7jKI38-Mz2-37" edge="1">
          <mxGeometry relative="1" as="geometry">
            <mxPoint x="1083.3899999999999" y="747" as="targetPoint" />
          </mxGeometry>
        </mxCell>
        <mxCell id="_u28TQLZVJ7jKI38-Mz2-62" value="true" style="edgeLabel;html=1;align=center;verticalAlign=middle;resizable=0;points=[];" parent="_u28TQLZVJ7jKI38-Mz2-51" vertex="1" connectable="0">
          <mxGeometry x="-0.5166" y="-2" relative="1" as="geometry">
            <mxPoint as="offset" />
          </mxGeometry>
        </mxCell>
        <mxCell id="_u28TQLZVJ7jKI38-Mz2-54" style="edgeStyle=orthogonalEdgeStyle;rounded=0;orthogonalLoop=1;jettySize=auto;html=1;exitX=1;exitY=0.5;exitDx=0;exitDy=0;entryX=0.541;entryY=0;entryDx=0;entryDy=0;entryPerimeter=0;" parent="s_1t6k1x21JJ02WUQk41-1" source="_u28TQLZVJ7jKI38-Mz2-49" target="_u28TQLZVJ7jKI38-Mz2-53" edge="1">
          <mxGeometry relative="1" as="geometry">
            <mxPoint x="1717.6037931034484" y="753.1034482758621" as="targetPoint" />
          </mxGeometry>
        </mxCell>
        <mxCell id="_u28TQLZVJ7jKI38-Mz2-63" value="false" style="edgeLabel;html=1;align=center;verticalAlign=middle;resizable=0;points=[];" parent="_u28TQLZVJ7jKI38-Mz2-54" vertex="1" connectable="0">
          <mxGeometry x="-0.7296" y="2" relative="1" as="geometry">
            <mxPoint as="offset" />
          </mxGeometry>
        </mxCell>
        <mxCell id="_u28TQLZVJ7jKI38-Mz2-49" value="student.academicLevel &gt;= Homework.question[index].minRequiredAL" style="rhombus;" parent="s_1t6k1x21JJ02WUQk41-1" vertex="1">
          <mxGeometry x="1211.19" y="822" width="411.5" height="114" as="geometry" />
        </mxCell>
        <mxCell id="_u28TQLZVJ7jKI38-Mz2-77" style="edgeStyle=orthogonalEdgeStyle;rounded=0;orthogonalLoop=1;jettySize=auto;html=1;exitX=0;exitY=0.5;exitDx=0;exitDy=0;" parent="s_1t6k1x21JJ02WUQk41-1" source="_u28TQLZVJ7jKI38-Mz2-53" target="_u28TQLZVJ7jKI38-Mz2-69" edge="1">
          <mxGeometry relative="1" as="geometry" />
        </mxCell>
        <mxCell id="_u28TQLZVJ7jKI38-Mz2-53" value="Homework.question [index].answer = false " style="rounded=0;whiteSpace=wrap;html=1;" parent="s_1t6k1x21JJ02WUQk41-1" vertex="1">
          <mxGeometry x="1636" y="1062" width="166.5" height="45" as="geometry" />
        </mxCell>
        <mxCell id="_u28TQLZVJ7jKI38-Mz2-56" value="&lt;i&gt;This is a for loop I just don&#39;t know how to express that properly in UML&lt;br&gt;&lt;/i&gt;" style="text;html=1;strokeColor=none;fillColor=none;align=center;verticalAlign=middle;whiteSpace=wrap;rounded=0;" parent="s_1t6k1x21JJ02WUQk41-1" vertex="1">
          <mxGeometry x="1774" y="911" width="147" height="20" as="geometry" />
        </mxCell>
        <mxCell id="_u28TQLZVJ7jKI38-Mz2-60" value="" style="ellipse;html=1;shape=endState;fillColor=#000000;strokeColor=#000000;sketch=0;" parent="s_1t6k1x21JJ02WUQk41-1" vertex="1">
          <mxGeometry x="1834.75" y="866" width="30" height="30" as="geometry" />
        </mxCell>
        <mxCell id="_u28TQLZVJ7jKI38-Mz2-75" style="edgeStyle=orthogonalEdgeStyle;rounded=0;orthogonalLoop=1;jettySize=auto;html=1;exitX=0;exitY=0.5;exitDx=0;exitDy=0;entryX=0.5;entryY=0;entryDx=0;entryDy=0;" parent="s_1t6k1x21JJ02WUQk41-1" source="_u28TQLZVJ7jKI38-Mz2-64" target="_u28TQLZVJ7jKI38-Mz2-49" edge="1">
          <mxGeometry relative="1" as="geometry" />
        </mxCell>
        <mxCell id="_u28TQLZVJ7jKI38-Mz2-79" value="&lt;div&gt;true&lt;/div&gt;" style="edgeLabel;html=1;align=center;verticalAlign=middle;resizable=0;points=[];" parent="_u28TQLZVJ7jKI38-Mz2-75" vertex="1" connectable="0">
          <mxGeometry x="-0.521" y="3" relative="1" as="geometry">
            <mxPoint x="1.96" y="-6" as="offset" />
          </mxGeometry>
        </mxCell>
        <mxCell id="_u28TQLZVJ7jKI38-Mz2-76" style="edgeStyle=orthogonalEdgeStyle;rounded=0;orthogonalLoop=1;jettySize=auto;html=1;exitX=1;exitY=0.5;exitDx=0;exitDy=0;" parent="s_1t6k1x21JJ02WUQk41-1" source="_u28TQLZVJ7jKI38-Mz2-64" edge="1">
          <mxGeometry relative="1" as="geometry">
            <mxPoint x="1850" y="865" as="targetPoint" />
          </mxGeometry>
        </mxCell>
        <mxCell id="_u28TQLZVJ7jKI38-Mz2-80" value="&lt;div&gt;false&lt;/div&gt;" style="edgeLabel;html=1;align=center;verticalAlign=middle;resizable=0;points=[];" parent="_u28TQLZVJ7jKI38-Mz2-76" vertex="1" connectable="0">
          <mxGeometry x="-0.632" y="2" relative="1" as="geometry">
            <mxPoint as="offset" />
          </mxGeometry>
        </mxCell>
        <mxCell id="_u28TQLZVJ7jKI38-Mz2-64" value="index &lt; size of question array&#xa;" style="rhombus;" parent="s_1t6k1x21JJ02WUQk41-1" vertex="1">
          <mxGeometry x="1513.04" y="639" width="199.31" height="92" as="geometry" />
        </mxCell>
        <mxCell id="_u28TQLZVJ7jKI38-Mz2-82" style="edgeStyle=orthogonalEdgeStyle;rounded=0;orthogonalLoop=1;jettySize=auto;html=1;exitX=0.5;exitY=1;exitDx=0;exitDy=0;" parent="s_1t6k1x21JJ02WUQk41-1" source="_u28TQLZVJ7jKI38-Mz2-69" edge="1">
          <mxGeometry relative="1" as="geometry">
            <mxPoint x="1614" y="639" as="targetPoint" />
            <Array as="points">
              <mxPoint x="1417" y="1119" />
              <mxPoint x="2085" y="1119" />
            </Array>
          </mxGeometry>
        </mxCell>
        <mxCell id="_u28TQLZVJ7jKI38-Mz2-69" value="add 1 to index" style="rounded=0;whiteSpace=wrap;html=1;" parent="s_1t6k1x21JJ02WUQk41-1" vertex="1">
          <mxGeometry x="1356.94" y="1069.5" width="120" height="30" as="geometry" />
        </mxCell>
        <mxCell id="_u28TQLZVJ7jKI38-Mz2-74" value="for(int index { 0 }; index &amp;lt; sizeof(Homework.question); ++index)" style="text;html=1;align=center;verticalAlign=middle;resizable=0;points=[];autosize=1;" parent="s_1t6k1x21JJ02WUQk41-1" vertex="1">
          <mxGeometry x="1735" y="949" width="336" height="18" as="geometry" />
        </mxCell>
      </root>
    </mxGraphModel>
  </diagram>
  <diagram id="Jblv5pwgb3ITuOm_os4w" name="Bnf">
    <mxGraphModel dx="1422" dy="802" grid="0" gridSize="10" guides="1" tooltips="1" connect="1" arrows="1" fold="1" page="1" pageScale="1" pageWidth="850" pageHeight="1100" math="0" shadow="0">
      <root>
        <mxCell id="4Zqyhj5hiK0_QSlidkFH-0" />
        <mxCell id="4Zqyhj5hiK0_QSlidkFH-1" parent="4Zqyhj5hiK0_QSlidkFH-0" />
        <mxCell id="4Zqyhj5hiK0_QSlidkFH-2" value="&lt;div align=&quot;left&quot;&gt;&amp;lt;teacher&amp;gt;:: &amp;lt;surname&amp;gt; &amp;lt;last-name&amp;gt; &amp;lt;subject-taught&amp;gt;&lt;/div&gt;&lt;div align=&quot;left&quot;&gt;&lt;br&gt;&lt;/div&gt;&lt;div align=&quot;left&quot;&gt;&amp;lt;student&amp;gt;:: &amp;lt;first-name&amp;gt; &amp;lt;last-name&amp;gt; &amp;lt;grade-level&amp;gt;&lt;/div&gt;&lt;div align=&quot;left&quot;&gt;&lt;br&gt;&lt;/div&gt;&lt;div align=&quot;left&quot;&gt;&amp;lt;surname&amp;gt;:: &quot;Mr.&quot; | &quot;Mrs.&quot; | &quot;Ms.&quot;&lt;/div&gt;&lt;div align=&quot;left&quot;&gt;&lt;br&gt;&lt;/div&gt;&lt;div align=&quot;left&quot;&gt;&amp;lt;last-name&amp;gt; &amp;amp; &amp;lt;first-name&amp;gt;:: &amp;lt;letters&amp;gt;&lt;/div&gt;&lt;div align=&quot;left&quot;&gt;&lt;br&gt;&lt;/div&gt;&lt;div align=&quot;left&quot;&gt;&amp;lt;subject-taught&amp;gt;:: &quot;English&quot; | &quot;Math&quot; | &quot;Science&quot;&lt;/div&gt;&lt;div align=&quot;left&quot;&gt;&lt;br&gt;&lt;/div&gt;&lt;div align=&quot;left&quot;&gt;&amp;lt;grade-level&amp;gt;:: K | 1 | 2 | 3 | 4 | 5 | 6 | 7 | 8 | 9 | 10 | 11 | 12&lt;/div&gt;&lt;div align=&quot;left&quot;&gt;&lt;br&gt;&lt;/div&gt;&lt;div align=&quot;left&quot;&gt;&amp;lt;letters&amp;gt;:: letter | letters &amp;amp; letter&lt;/div&gt;&lt;div align=&quot;left&quot;&gt;&lt;br&gt;&lt;/div&gt;&lt;div align=&quot;left&quot;&gt;&amp;lt;letter&amp;gt;:: A-Z | a-z&lt;/div&gt;&lt;div align=&quot;left&quot;&gt;&lt;br&gt;&lt;/div&gt;&lt;div align=&quot;left&quot;&gt;&amp;lt;assign&amp;gt;:: &amp;lt;homework&amp;gt;&lt;/div&gt;&lt;div align=&quot;left&quot;&gt;&lt;br&gt;&lt;/div&gt;&lt;div align=&quot;left&quot;&gt;&amp;lt;homework&amp;gt;:: &amp;lt;subject-taught&amp;gt; &amp;lt;difficulty&amp;gt;&lt;/div&gt;&lt;div align=&quot;left&quot;&gt;&lt;br&gt;&lt;/div&gt;&lt;div align=&quot;left&quot;&gt;&amp;lt;difficulty&amp;gt;:: &amp;lt;grade-level&amp;gt;&lt;/div&gt;&lt;div align=&quot;left&quot;&gt;&lt;br&gt;&lt;/div&gt;&lt;div align=&quot;left&quot;&gt;&amp;lt;class-schedule&amp;gt;:: &amp;lt;subject-taught&amp;gt; &amp;lt;time&amp;gt; | &amp;lt;subject-taught&amp;gt; &amp;lt;time&amp;gt; | &amp;lt;subject-taught&amp;gt; &amp;lt;time&amp;gt; | &amp;lt;subject-taught&amp;gt; &amp;lt;time&amp;gt;&lt;/div&gt;&lt;div align=&quot;left&quot;&gt;&lt;br&gt;&lt;/div&gt;&lt;div align=&quot;left&quot;&gt;&amp;lt;time&amp;gt;:: 12AM - 12PM&lt;/div&gt;&lt;div align=&quot;left&quot;&gt;&lt;br&gt;&lt;/div&gt;&lt;div align=&quot;left&quot;&gt;&lt;br&gt;&lt;/div&gt;" style="text;html=1;align=left;verticalAlign=middle;resizable=0;points=[];autosize=1;" parent="4Zqyhj5hiK0_QSlidkFH-1" vertex="1">
          <mxGeometry x="27" y="66" width="652" height="382" as="geometry" />
        </mxCell>
      </root>
    </mxGraphModel>
  </diagram>
  <diagram id="0UEIXW0nfOPuoP48EcPC" name="Hitchhikers Guide">
    <mxGraphModel dx="2831" dy="1146" grid="0" gridSize="10" guides="1" tooltips="1" connect="1" arrows="1" fold="1" page="0" pageScale="1" pageWidth="850" pageHeight="1100" math="0" shadow="0">
      <root>
        <mxCell id="-wKdD1VKQordn2tFMaNz-0" />
        <mxCell id="-wKdD1VKQordn2tFMaNz-1" parent="-wKdD1VKQordn2tFMaNz-0" />
        <mxCell id="-wKdD1VKQordn2tFMaNz-2" value="LivingEntity" style="swimlane;fontStyle=1;align=center;verticalAlign=top;childLayout=stackLayout;horizontal=1;startSize=26;horizontalStack=0;resizeParent=1;resizeParentMax=0;resizeLast=0;collapsible=1;marginBottom=0;" vertex="1" parent="-wKdD1VKQordn2tFMaNz-1">
          <mxGeometry x="280" width="164" height="214" as="geometry" />
        </mxCell>
        <mxCell id="-wKdD1VKQordn2tFMaNz-3" value="name : string&#xa;species: Species&#xa;age : number&#xa;pronoun : string&#xa;possessivePronoun : string&#xa;arms: number&#xa;legs: number&#xa;heads : number&#xa;announceSpeaker : boolean&#xa;&#xa;" style="text;strokeColor=none;fillColor=none;align=left;verticalAlign=top;spacingLeft=4;spacingRight=4;overflow=hidden;rotatable=0;points=[[0,0.5],[1,0.5]];portConstraint=eastwest;" vertex="1" parent="-wKdD1VKQordn2tFMaNz-2">
          <mxGeometry y="26" width="164" height="138" as="geometry" />
        </mxCell>
        <mxCell id="-wKdD1VKQordn2tFMaNz-4" value="" style="line;strokeWidth=1;fillColor=none;align=left;verticalAlign=middle;spacingTop=-1;spacingLeft=3;spacingRight=3;rotatable=0;labelPosition=right;points=[];portConstraint=eastwest;" vertex="1" parent="-wKdD1VKQordn2tFMaNz-2">
          <mxGeometry y="164" width="164" height="8" as="geometry" />
        </mxCell>
        <mxCell id="-wKdD1VKQordn2tFMaNz-5" value="speak(string) : boolean &#xa;action method?" style="text;strokeColor=none;fillColor=none;align=left;verticalAlign=top;spacingLeft=4;spacingRight=4;overflow=hidden;rotatable=0;points=[[0,0.5],[1,0.5]];portConstraint=eastwest;" vertex="1" parent="-wKdD1VKQordn2tFMaNz-2">
          <mxGeometry y="172" width="164" height="42" as="geometry" />
        </mxCell>
        <mxCell id="-wKdD1VKQordn2tFMaNz-13" value="Species" style="swimlane;fontStyle=1;align=center;verticalAlign=top;childLayout=stackLayout;horizontal=1;startSize=26;horizontalStack=0;resizeParent=1;resizeParentMax=0;resizeLast=0;collapsible=1;marginBottom=0;" vertex="1" parent="-wKdD1VKQordn2tFMaNz-1">
          <mxGeometry x="530" y="24" width="160" height="94" as="geometry" />
        </mxCell>
        <mxCell id="-wKdD1VKQordn2tFMaNz-14" value="name : string&#xa;primaryPlanet : Planet&#xa;" style="text;strokeColor=none;fillColor=none;align=left;verticalAlign=top;spacingLeft=4;spacingRight=4;overflow=hidden;rotatable=0;points=[[0,0.5],[1,0.5]];portConstraint=eastwest;" vertex="1" parent="-wKdD1VKQordn2tFMaNz-13">
          <mxGeometry y="26" width="160" height="34" as="geometry" />
        </mxCell>
        <mxCell id="-wKdD1VKQordn2tFMaNz-15" value="" style="line;strokeWidth=1;fillColor=none;align=left;verticalAlign=middle;spacingTop=-1;spacingLeft=3;spacingRight=3;rotatable=0;labelPosition=right;points=[];portConstraint=eastwest;" vertex="1" parent="-wKdD1VKQordn2tFMaNz-13">
          <mxGeometry y="60" width="160" height="8" as="geometry" />
        </mxCell>
        <mxCell id="-wKdD1VKQordn2tFMaNz-16" value="+ method(type): type" style="text;strokeColor=none;fillColor=none;align=left;verticalAlign=top;spacingLeft=4;spacingRight=4;overflow=hidden;rotatable=0;points=[[0,0.5],[1,0.5]];portConstraint=eastwest;" vertex="1" parent="-wKdD1VKQordn2tFMaNz-13">
          <mxGeometry y="68" width="160" height="26" as="geometry" />
        </mxCell>
        <mxCell id="-wKdD1VKQordn2tFMaNz-17" value="Classname" style="swimlane;fontStyle=1;align=center;verticalAlign=top;childLayout=stackLayout;horizontal=1;startSize=26;horizontalStack=0;resizeParent=1;resizeParentMax=0;resizeLast=0;collapsible=1;marginBottom=0;" vertex="1" parent="-wKdD1VKQordn2tFMaNz-1">
          <mxGeometry x="10" y="20" width="160" height="86" as="geometry" />
        </mxCell>
        <mxCell id="-wKdD1VKQordn2tFMaNz-18" value="+ field: type" style="text;strokeColor=none;fillColor=none;align=left;verticalAlign=top;spacingLeft=4;spacingRight=4;overflow=hidden;rotatable=0;points=[[0,0.5],[1,0.5]];portConstraint=eastwest;" vertex="1" parent="-wKdD1VKQordn2tFMaNz-17">
          <mxGeometry y="26" width="160" height="26" as="geometry" />
        </mxCell>
        <mxCell id="-wKdD1VKQordn2tFMaNz-19" value="" style="line;strokeWidth=1;fillColor=none;align=left;verticalAlign=middle;spacingTop=-1;spacingLeft=3;spacingRight=3;rotatable=0;labelPosition=right;points=[];portConstraint=eastwest;" vertex="1" parent="-wKdD1VKQordn2tFMaNz-17">
          <mxGeometry y="52" width="160" height="8" as="geometry" />
        </mxCell>
        <mxCell id="-wKdD1VKQordn2tFMaNz-20" value="+ method(type): type" style="text;strokeColor=none;fillColor=none;align=left;verticalAlign=top;spacingLeft=4;spacingRight=4;overflow=hidden;rotatable=0;points=[[0,0.5],[1,0.5]];portConstraint=eastwest;" vertex="1" parent="-wKdD1VKQordn2tFMaNz-17">
          <mxGeometry y="60" width="160" height="26" as="geometry" />
        </mxCell>
        <mxCell id="-wKdD1VKQordn2tFMaNz-25" value="Planet" style="swimlane;fontStyle=1;align=center;verticalAlign=top;childLayout=stackLayout;horizontal=1;startSize=26;horizontalStack=0;resizeParent=1;resizeParentMax=0;resizeLast=0;collapsible=1;marginBottom=0;" vertex="1" parent="-wKdD1VKQordn2tFMaNz-1">
          <mxGeometry x="240" y="230" width="160" height="114" as="geometry" />
        </mxCell>
        <mxCell id="-wKdD1VKQordn2tFMaNz-26" value="name : string&#xa;" style="text;strokeColor=none;fillColor=none;align=left;verticalAlign=top;spacingLeft=4;spacingRight=4;overflow=hidden;rotatable=0;points=[[0,0.5],[1,0.5]];portConstraint=eastwest;" vertex="1" parent="-wKdD1VKQordn2tFMaNz-25">
          <mxGeometry y="26" width="160" height="54" as="geometry" />
        </mxCell>
        <mxCell id="-wKdD1VKQordn2tFMaNz-27" value="" style="line;strokeWidth=1;fillColor=none;align=left;verticalAlign=middle;spacingTop=-1;spacingLeft=3;spacingRight=3;rotatable=0;labelPosition=right;points=[];portConstraint=eastwest;" vertex="1" parent="-wKdD1VKQordn2tFMaNz-25">
          <mxGeometry y="80" width="160" height="8" as="geometry" />
        </mxCell>
        <mxCell id="-wKdD1VKQordn2tFMaNz-28" value="+ method(type): type" style="text;strokeColor=none;fillColor=none;align=left;verticalAlign=top;spacingLeft=4;spacingRight=4;overflow=hidden;rotatable=0;points=[[0,0.5],[1,0.5]];portConstraint=eastwest;" vertex="1" parent="-wKdD1VKQordn2tFMaNz-25">
          <mxGeometry y="88" width="160" height="26" as="geometry" />
        </mxCell>
        <mxCell id="-wKdD1VKQordn2tFMaNz-29" value="Vector3" style="swimlane;fontStyle=1;align=center;verticalAlign=top;childLayout=stackLayout;horizontal=1;startSize=26;horizontalStack=0;resizeParent=1;resizeParentMax=0;resizeLast=0;collapsible=1;marginBottom=0;" vertex="1" parent="-wKdD1VKQordn2tFMaNz-1">
          <mxGeometry x="500" y="180" width="160" height="114" as="geometry" />
        </mxCell>
        <mxCell id="-wKdD1VKQordn2tFMaNz-30" value="x : number&#xa;y : number&#xa;z : number&#xa;" style="text;strokeColor=none;fillColor=none;align=left;verticalAlign=top;spacingLeft=4;spacingRight=4;overflow=hidden;rotatable=0;points=[[0,0.5],[1,0.5]];portConstraint=eastwest;" vertex="1" parent="-wKdD1VKQordn2tFMaNz-29">
          <mxGeometry y="26" width="160" height="54" as="geometry" />
        </mxCell>
        <mxCell id="-wKdD1VKQordn2tFMaNz-31" value="" style="line;strokeWidth=1;fillColor=none;align=left;verticalAlign=middle;spacingTop=-1;spacingLeft=3;spacingRight=3;rotatable=0;labelPosition=right;points=[];portConstraint=eastwest;" vertex="1" parent="-wKdD1VKQordn2tFMaNz-29">
          <mxGeometry y="80" width="160" height="8" as="geometry" />
        </mxCell>
        <mxCell id="-wKdD1VKQordn2tFMaNz-32" value="+ method(type): type" style="text;strokeColor=none;fillColor=none;align=left;verticalAlign=top;spacingLeft=4;spacingRight=4;overflow=hidden;rotatable=0;points=[[0,0.5],[1,0.5]];portConstraint=eastwest;" vertex="1" parent="-wKdD1VKQordn2tFMaNz-29">
          <mxGeometry y="88" width="160" height="26" as="geometry" />
        </mxCell>
        <mxCell id="-wKdD1VKQordn2tFMaNz-33" value="&lt;div&gt;Aurthur Dent, 37 year old Human&lt;/div&gt;&lt;div&gt;could use inheritance with entity objects&lt;br&gt;&lt;/div&gt;&lt;div&gt;&lt;br&gt;&lt;/div&gt;&lt;div&gt;&lt;br&gt;&lt;/div&gt;&lt;div&gt;start mapping out story line and adjust classes from there&lt;br&gt;&lt;/div&gt;" style="text;html=1;strokeColor=none;fillColor=none;align=center;verticalAlign=middle;whiteSpace=wrap;rounded=0;" vertex="1" parent="-wKdD1VKQordn2tFMaNz-1">
          <mxGeometry x="10" y="410" width="240" height="170" as="geometry" />
        </mxCell>
        <mxCell id="-wKdD1VKQordn2tFMaNz-38" value="Travel Guide" style="swimlane;fontStyle=1;align=center;verticalAlign=top;childLayout=stackLayout;horizontal=1;startSize=26;horizontalStack=0;resizeParent=1;resizeParentMax=0;resizeLast=0;collapsible=1;marginBottom=0;" vertex="1" parent="-wKdD1VKQordn2tFMaNz-1">
          <mxGeometry x="10" y="190" width="160" height="104" as="geometry" />
        </mxCell>
        <mxCell id="-wKdD1VKQordn2tFMaNz-39" value="title : string&#xa;coverText : string&#xa;" style="text;strokeColor=none;fillColor=none;align=left;verticalAlign=top;spacingLeft=4;spacingRight=4;overflow=hidden;rotatable=0;points=[[0,0.5],[1,0.5]];portConstraint=eastwest;" vertex="1" parent="-wKdD1VKQordn2tFMaNz-38">
          <mxGeometry y="26" width="160" height="44" as="geometry" />
        </mxCell>
        <mxCell id="-wKdD1VKQordn2tFMaNz-40" value="" style="line;strokeWidth=1;fillColor=none;align=left;verticalAlign=middle;spacingTop=-1;spacingLeft=3;spacingRight=3;rotatable=0;labelPosition=right;points=[];portConstraint=eastwest;" vertex="1" parent="-wKdD1VKQordn2tFMaNz-38">
          <mxGeometry y="70" width="160" height="8" as="geometry" />
        </mxCell>
        <mxCell id="-wKdD1VKQordn2tFMaNz-41" value="+ method(type): type" style="text;strokeColor=none;fillColor=none;align=left;verticalAlign=top;spacingLeft=4;spacingRight=4;overflow=hidden;rotatable=0;points=[[0,0.5],[1,0.5]];portConstraint=eastwest;" vertex="1" parent="-wKdD1VKQordn2tFMaNz-38">
          <mxGeometry y="78" width="160" height="26" as="geometry" />
        </mxCell>
        <mxCell id="-wKdD1VKQordn2tFMaNz-42" value="Entity" style="swimlane;fontStyle=1;align=center;verticalAlign=top;childLayout=stackLayout;horizontal=1;startSize=26;horizontalStack=0;resizeParent=1;resizeParentMax=0;resizeLast=0;collapsible=1;marginBottom=0;" vertex="1" parent="-wKdD1VKQordn2tFMaNz-1">
          <mxGeometry x="500" y="320" width="160" height="94" as="geometry" />
        </mxCell>
        <mxCell id="-wKdD1VKQordn2tFMaNz-43" value="descriptor :string&#xa;owner : LivingEntity&#xa;" style="text;strokeColor=none;fillColor=none;align=left;verticalAlign=top;spacingLeft=4;spacingRight=4;overflow=hidden;rotatable=0;points=[[0,0.5],[1,0.5]];portConstraint=eastwest;" vertex="1" parent="-wKdD1VKQordn2tFMaNz-42">
          <mxGeometry y="26" width="160" height="34" as="geometry" />
        </mxCell>
        <mxCell id="-wKdD1VKQordn2tFMaNz-44" value="" style="line;strokeWidth=1;fillColor=none;align=left;verticalAlign=middle;spacingTop=-1;spacingLeft=3;spacingRight=3;rotatable=0;labelPosition=right;points=[];portConstraint=eastwest;" vertex="1" parent="-wKdD1VKQordn2tFMaNz-42">
          <mxGeometry y="60" width="160" height="8" as="geometry" />
        </mxCell>
        <mxCell id="-wKdD1VKQordn2tFMaNz-45" value="actions?" style="text;strokeColor=none;fillColor=none;align=left;verticalAlign=top;spacingLeft=4;spacingRight=4;overflow=hidden;rotatable=0;points=[[0,0.5],[1,0.5]];portConstraint=eastwest;" vertex="1" parent="-wKdD1VKQordn2tFMaNz-42">
          <mxGeometry y="68" width="160" height="26" as="geometry" />
        </mxCell>
        <mxCell id="wks1egdlLgKaKfjmOBUZ-11" style="edgeStyle=orthogonalEdgeStyle;rounded=0;orthogonalLoop=1;jettySize=auto;html=1;" edge="1" parent="-wKdD1VKQordn2tFMaNz-1" source="-wKdD1VKQordn2tFMaNz-46">
          <mxGeometry relative="1" as="geometry">
            <mxPoint x="155" y="1262" as="targetPoint" />
          </mxGeometry>
        </mxCell>
        <mxCell id="-wKdD1VKQordn2tFMaNz-46" value="&lt;div&gt;Create LivingEntity object aurthurDent&lt;br&gt;&lt;/div&gt;&lt;div&gt;name = &quot;Arthur Dent&quot;&lt;/div&gt;&lt;div&gt;species = human&lt;/div&gt;&lt;div&gt;pronoun = &quot;he&quot;&lt;/div&gt;&lt;div&gt;possessivePronoun = &quot;his&quot;&lt;br&gt;&lt;/div&gt;&lt;div&gt;age = 37&lt;/div&gt;&lt;div&gt;arms = 2&lt;/div&gt;&lt;div&gt;legs = 2&lt;/div&gt;&lt;div&gt;heads = 1&lt;/div&gt;&lt;div&gt;announceSpeaker = true&lt;br&gt;&lt;/div&gt;" style="rounded=0;whiteSpace=wrap;html=1;" vertex="1" parent="-wKdD1VKQordn2tFMaNz-1">
          <mxGeometry x="40" y="1052" width="230" height="151" as="geometry" />
        </mxCell>
        <mxCell id="wks1egdlLgKaKfjmOBUZ-0" style="edgeStyle=orthogonalEdgeStyle;rounded=0;orthogonalLoop=1;jettySize=auto;html=1;exitX=0.5;exitY=1;exitDx=0;exitDy=0;" edge="1" parent="-wKdD1VKQordn2tFMaNz-1" source="bd2gLGcgRqSaVZfxjLPG-0">
          <mxGeometry relative="1" as="geometry">
            <mxPoint x="155.2352941176473" y="1051.2941176470588" as="targetPoint" />
          </mxGeometry>
        </mxCell>
        <mxCell id="bd2gLGcgRqSaVZfxjLPG-0" value="&lt;div&gt;Create LivingEntity object narrator&lt;/div&gt;&lt;div&gt;name = &quot;Narrator&quot;&lt;/div&gt;&lt;div&gt;species = narrator&lt;/div&gt;&lt;div&gt;age = 0&lt;/div&gt;&lt;div&gt;pronoun = &quot; &quot;&lt;/div&gt;&lt;div&gt;possessivePronoun = &quot; &quot;&lt;br&gt;&lt;/div&gt;&lt;div&gt;arms = 0&lt;/div&gt;&lt;div&gt;legs = 0&lt;/div&gt;&lt;div&gt;heads = 0&lt;/div&gt;&lt;div&gt;announceSpeaker = false&lt;br&gt;&lt;/div&gt;" style="rounded=0;whiteSpace=wrap;html=1;" vertex="1" parent="-wKdD1VKQordn2tFMaNz-1">
          <mxGeometry x="40" y="801" width="230" height="146" as="geometry" />
        </mxCell>
        <mxCell id="wks1egdlLgKaKfjmOBUZ-2" style="edgeStyle=orthogonalEdgeStyle;rounded=0;orthogonalLoop=1;jettySize=auto;html=1;" edge="1" parent="-wKdD1VKQordn2tFMaNz-1" source="2DuJpXHP9tJtV9mL60st-0">
          <mxGeometry relative="1" as="geometry">
            <mxPoint x="39.94117647058829" y="866" as="targetPoint" />
          </mxGeometry>
        </mxCell>
        <mxCell id="2DuJpXHP9tJtV9mL60st-0" value="&lt;div&gt;Create Species object narrator&lt;/div&gt;&lt;div&gt;name = &quot;narrator&quot;&lt;/div&gt;&lt;div&gt;primaryPlanet = unknown&lt;br&gt;&lt;/div&gt;" style="rounded=0;whiteSpace=wrap;html=1;" vertex="1" parent="-wKdD1VKQordn2tFMaNz-1">
          <mxGeometry x="-226" y="836.5" width="186" height="59" as="geometry" />
        </mxCell>
        <mxCell id="2DuJpXHP9tJtV9mL60st-2" style="edgeStyle=orthogonalEdgeStyle;rounded=0;orthogonalLoop=1;jettySize=auto;html=1;" edge="1" parent="-wKdD1VKQordn2tFMaNz-1" source="2DuJpXHP9tJtV9mL60st-1">
          <mxGeometry relative="1" as="geometry">
            <mxPoint x="-227" y="866" as="targetPoint" />
          </mxGeometry>
        </mxCell>
        <mxCell id="2DuJpXHP9tJtV9mL60st-1" value="&lt;div&gt;Create Planet object unknown&lt;/div&gt;&lt;div&gt;name = &quot;unknown&quot;&lt;br&gt;&lt;/div&gt; " style="rounded=0;whiteSpace=wrap;html=1;" vertex="1" parent="-wKdD1VKQordn2tFMaNz-1">
          <mxGeometry x="-516" y="836.5" width="186" height="59" as="geometry" />
        </mxCell>
        <mxCell id="cykYnYHPebJqiTs9cDRE-0" style="edgeStyle=orthogonalEdgeStyle;rounded=0;orthogonalLoop=1;jettySize=auto;html=1;" edge="1" parent="-wKdD1VKQordn2tFMaNz-1" source="hXJyoyZvmQZLO0JPiqe2-0">
          <mxGeometry relative="1" as="geometry">
            <mxPoint x="862.5" y="455" as="targetPoint" />
          </mxGeometry>
        </mxCell>
        <mxCell id="hXJyoyZvmQZLO0JPiqe2-0" value="" style="ellipse;fillColor=#000000;strokeColor=none;sketch=0;" vertex="1" parent="-wKdD1VKQordn2tFMaNz-1">
          <mxGeometry x="847.5" y="319" width="30" height="30" as="geometry" />
        </mxCell>
        <mxCell id="hXJyoyZvmQZLO0JPiqe2-1" value="LivingEntity.speak(string)" style="text;html=1;align=center;verticalAlign=middle;resizable=0;points=[];autosize=1;strokeColor=none;" vertex="1" parent="-wKdD1VKQordn2tFMaNz-1">
          <mxGeometry x="790" y="294" width="146" height="18" as="geometry" />
        </mxCell>
        <mxCell id="cykYnYHPebJqiTs9cDRE-1" value="print(string)" style="rounded=0;whiteSpace=wrap;html=1;" vertex="1" parent="-wKdD1VKQordn2tFMaNz-1">
          <mxGeometry x="795.5" y="876" width="97" height="39" as="geometry" />
        </mxCell>
        <mxCell id="wks1egdlLgKaKfjmOBUZ-5" style="edgeStyle=orthogonalEdgeStyle;rounded=0;orthogonalLoop=1;jettySize=auto;html=1;entryX=0;entryY=0.5;entryDx=0;entryDy=0;" edge="1" parent="-wKdD1VKQordn2tFMaNz-1" source="wks1egdlLgKaKfjmOBUZ-3" target="wks1egdlLgKaKfjmOBUZ-4">
          <mxGeometry relative="1" as="geometry" />
        </mxCell>
        <mxCell id="wks1egdlLgKaKfjmOBUZ-3" value="&lt;div&gt;Create Planet object earth&lt;/div&gt;&lt;div&gt;name = &quot;Earth&quot;&lt;br&gt;&lt;/div&gt;" style="rounded=0;whiteSpace=wrap;html=1;" vertex="1" parent="-wKdD1VKQordn2tFMaNz-1">
          <mxGeometry x="-516" y="1093" width="186" height="59" as="geometry" />
        </mxCell>
        <mxCell id="wks1egdlLgKaKfjmOBUZ-6" style="edgeStyle=orthogonalEdgeStyle;rounded=0;orthogonalLoop=1;jettySize=auto;html=1;" edge="1" parent="-wKdD1VKQordn2tFMaNz-1" source="wks1egdlLgKaKfjmOBUZ-4">
          <mxGeometry relative="1" as="geometry">
            <mxPoint x="35.833333333333485" y="1122.5" as="targetPoint" />
          </mxGeometry>
        </mxCell>
        <mxCell id="wks1egdlLgKaKfjmOBUZ-4" value="&lt;div&gt;Create Species object human&lt;/div&gt;&lt;div&gt;name = &quot;Human&quot;&lt;/div&gt;&lt;div&gt;primaryPlanet = earth&lt;br&gt;&lt;/div&gt;" style="rounded=0;whiteSpace=wrap;html=1;" vertex="1" parent="-wKdD1VKQordn2tFMaNz-1">
          <mxGeometry x="-232" y="1093" width="186" height="59" as="geometry" />
        </mxCell>
        <mxCell id="wks1egdlLgKaKfjmOBUZ-12" style="edgeStyle=orthogonalEdgeStyle;rounded=0;orthogonalLoop=1;jettySize=auto;html=1;" edge="1" parent="-wKdD1VKQordn2tFMaNz-1" source="wks1egdlLgKaKfjmOBUZ-7">
          <mxGeometry relative="1" as="geometry">
            <mxPoint x="142.5" y="1387" as="targetPoint" />
          </mxGeometry>
        </mxCell>
        <mxCell id="wks1egdlLgKaKfjmOBUZ-7" value="narrator.speak(aurthurDent.name)" style="rounded=0;whiteSpace=wrap;html=1;" vertex="1" parent="-wKdD1VKQordn2tFMaNz-1">
          <mxGeometry x="45" y="1267" width="195" height="60" as="geometry" />
        </mxCell>
        <mxCell id="wks1egdlLgKaKfjmOBUZ-13" style="edgeStyle=orthogonalEdgeStyle;rounded=0;orthogonalLoop=1;jettySize=auto;html=1;" edge="1" parent="-wKdD1VKQordn2tFMaNz-1" source="wks1egdlLgKaKfjmOBUZ-8">
          <mxGeometry relative="1" as="geometry">
            <mxPoint x="142.5" y="1487" as="targetPoint" />
          </mxGeometry>
        </mxCell>
        <mxCell id="wks1egdlLgKaKfjmOBUZ-8" value="narrator.speak(&quot;&#39;s house stood on a slight rise just outside the village. It hadn&#39;t properly registered with &quot;)" style="rounded=0;whiteSpace=wrap;html=1;" vertex="1" parent="-wKdD1VKQordn2tFMaNz-1">
          <mxGeometry x="38" y="1392" width="209" height="60" as="geometry" />
        </mxCell>
        <mxCell id="C3rFUJOiMu-fp5CJjSKa-9" style="edgeStyle=orthogonalEdgeStyle;rounded=0;orthogonalLoop=1;jettySize=auto;html=1;exitX=0.5;exitY=1;exitDx=0;exitDy=0;entryX=0.5;entryY=0;entryDx=0;entryDy=0;" edge="1" parent="-wKdD1VKQordn2tFMaNz-1" source="wks1egdlLgKaKfjmOBUZ-9" target="wks1egdlLgKaKfjmOBUZ-10">
          <mxGeometry relative="1" as="geometry" />
        </mxCell>
        <mxCell id="wks1egdlLgKaKfjmOBUZ-9" value="narrator.speak(aurthurDent.name)" style="rounded=0;whiteSpace=wrap;html=1;" vertex="1" parent="-wKdD1VKQordn2tFMaNz-1">
          <mxGeometry x="40" y="1489" width="195" height="60" as="geometry" />
        </mxCell>
        <mxCell id="C3rFUJOiMu-fp5CJjSKa-17" style="edgeStyle=orthogonalEdgeStyle;rounded=0;orthogonalLoop=1;jettySize=auto;html=1;" edge="1" parent="-wKdD1VKQordn2tFMaNz-1" source="wks1egdlLgKaKfjmOBUZ-10">
          <mxGeometry relative="1" as="geometry">
            <mxPoint x="413" y="1296" as="targetPoint" />
            <Array as="points">
              <mxPoint x="331" y="1654" />
            </Array>
          </mxGeometry>
        </mxCell>
        <mxCell id="wks1egdlLgKaKfjmOBUZ-10" value="narrator.speak(&quot; that the council wanted to knock down his house and build a bypass instead, until &quot;)" style="rounded=0;whiteSpace=wrap;html=1;" vertex="1" parent="-wKdD1VKQordn2tFMaNz-1">
          <mxGeometry x="33" y="1624" width="209" height="60" as="geometry" />
        </mxCell>
        <mxCell id="C3rFUJOiMu-fp5CJjSKa-11" style="edgeStyle=orthogonalEdgeStyle;rounded=0;orthogonalLoop=1;jettySize=auto;html=1;" edge="1" parent="-wKdD1VKQordn2tFMaNz-1" source="wks1egdlLgKaKfjmOBUZ-15">
          <mxGeometry relative="1" as="geometry">
            <mxPoint x="520.75" y="1382" as="targetPoint" />
          </mxGeometry>
        </mxCell>
        <mxCell id="wks1egdlLgKaKfjmOBUZ-15" value="narrator.speak(aurthurDent.pronoun)" style="rounded=0;whiteSpace=wrap;html=1;" vertex="1" parent="-wKdD1VKQordn2tFMaNz-1">
          <mxGeometry x="416" y="1267" width="209.5" height="60" as="geometry" />
        </mxCell>
        <mxCell id="C3rFUJOiMu-fp5CJjSKa-12" style="edgeStyle=orthogonalEdgeStyle;rounded=0;orthogonalLoop=1;jettySize=auto;html=1;" edge="1" parent="-wKdD1VKQordn2tFMaNz-1" source="wks1egdlLgKaKfjmOBUZ-17">
          <mxGeometry relative="1" as="geometry">
            <mxPoint x="517.5" y="1505" as="targetPoint" />
          </mxGeometry>
        </mxCell>
        <mxCell id="wks1egdlLgKaKfjmOBUZ-17" value="narrator.speak(&quot; spotted a yellow bulldozer outside of &quot;)" style="rounded=0;whiteSpace=wrap;html=1;" vertex="1" parent="-wKdD1VKQordn2tFMaNz-1">
          <mxGeometry x="413" y="1387" width="209" height="60" as="geometry" />
        </mxCell>
        <mxCell id="C3rFUJOiMu-fp5CJjSKa-13" style="edgeStyle=orthogonalEdgeStyle;rounded=0;orthogonalLoop=1;jettySize=auto;html=1;entryX=0.579;entryY=-0.083;entryDx=0;entryDy=0;entryPerimeter=0;" edge="1" parent="-wKdD1VKQordn2tFMaNz-1" source="wks1egdlLgKaKfjmOBUZ-19" target="wks1egdlLgKaKfjmOBUZ-21">
          <mxGeometry relative="1" as="geometry" />
        </mxCell>
        <mxCell id="wks1egdlLgKaKfjmOBUZ-19" value="narrator.speak(aurthurDent.possessivePronoun)" style="rounded=0;whiteSpace=wrap;html=1;" vertex="1" parent="-wKdD1VKQordn2tFMaNz-1">
          <mxGeometry x="381.5" y="1507" width="278.5" height="60" as="geometry" />
        </mxCell>
        <mxCell id="C3rFUJOiMu-fp5CJjSKa-18" style="edgeStyle=orthogonalEdgeStyle;rounded=0;orthogonalLoop=1;jettySize=auto;html=1;" edge="1" parent="-wKdD1VKQordn2tFMaNz-1" source="wks1egdlLgKaKfjmOBUZ-21">
          <mxGeometry relative="1" as="geometry">
            <mxPoint x="777" y="1306" as="targetPoint" />
            <Array as="points">
              <mxPoint x="714" y="1671" />
            </Array>
          </mxGeometry>
        </mxCell>
        <mxCell id="wks1egdlLgKaKfjmOBUZ-21" value="narrator.speak(&quot; house. Fifteen seconds later &quot;)" style="rounded=0;whiteSpace=wrap;html=1;" vertex="1" parent="-wKdD1VKQordn2tFMaNz-1">
          <mxGeometry x="400" y="1641" width="209" height="60" as="geometry" />
        </mxCell>
        <mxCell id="C3rFUJOiMu-fp5CJjSKa-14" style="edgeStyle=orthogonalEdgeStyle;rounded=0;orthogonalLoop=1;jettySize=auto;html=1;entryX=0.447;entryY=0;entryDx=0;entryDy=0;entryPerimeter=0;" edge="1" parent="-wKdD1VKQordn2tFMaNz-1" source="wks1egdlLgKaKfjmOBUZ-23" target="wks1egdlLgKaKfjmOBUZ-25">
          <mxGeometry relative="1" as="geometry" />
        </mxCell>
        <mxCell id="wks1egdlLgKaKfjmOBUZ-23" value="narrator.speak(aurthurDent.pronoun)" style="rounded=0;whiteSpace=wrap;html=1;" vertex="1" parent="-wKdD1VKQordn2tFMaNz-1">
          <mxGeometry x="778.75" y="1274" width="209.5" height="60" as="geometry" />
        </mxCell>
        <mxCell id="C3rFUJOiMu-fp5CJjSKa-15" style="edgeStyle=orthogonalEdgeStyle;rounded=0;orthogonalLoop=1;jettySize=auto;html=1;" edge="1" parent="-wKdD1VKQordn2tFMaNz-1" source="wks1egdlLgKaKfjmOBUZ-25">
          <mxGeometry relative="1" as="geometry">
            <mxPoint x="894.5" y="1513" as="targetPoint" />
          </mxGeometry>
        </mxCell>
        <mxCell id="wks1egdlLgKaKfjmOBUZ-25" value="narrator.speak(&quot; was outside of the house and lying in front of a big yellow bulldoze that was advancing up &quot;)" style="rounded=0;whiteSpace=wrap;html=1;" vertex="1" parent="-wKdD1VKQordn2tFMaNz-1">
          <mxGeometry x="790" y="1403" width="209" height="60" as="geometry" />
        </mxCell>
        <mxCell id="C3rFUJOiMu-fp5CJjSKa-16" style="edgeStyle=orthogonalEdgeStyle;rounded=0;orthogonalLoop=1;jettySize=auto;html=1;" edge="1" parent="-wKdD1VKQordn2tFMaNz-1" source="wks1egdlLgKaKfjmOBUZ-27">
          <mxGeometry relative="1" as="geometry">
            <mxPoint x="897.25" y="1629" as="targetPoint" />
          </mxGeometry>
        </mxCell>
        <mxCell id="wks1egdlLgKaKfjmOBUZ-27" value="narrator.speak(aurthurDent.possessivePronoun)" style="rounded=0;whiteSpace=wrap;html=1;" vertex="1" parent="-wKdD1VKQordn2tFMaNz-1">
          <mxGeometry x="758" y="1516.5" width="278.5" height="60" as="geometry" />
        </mxCell>
        <mxCell id="wks1egdlLgKaKfjmOBUZ-29" value="narrator.speak(&quot; garden path.&quot;)" style="rounded=0;whiteSpace=wrap;html=1;" vertex="1" parent="-wKdD1VKQordn2tFMaNz-1">
          <mxGeometry x="778.75" y="1633" width="209" height="60" as="geometry" />
        </mxCell>
        <mxCell id="Bv9ZyaNxrl_WctDnyPcF-0" style="edgeStyle=orthogonalEdgeStyle;rounded=0;orthogonalLoop=1;jettySize=auto;html=1;entryX=0.5;entryY=0;entryDx=0;entryDy=0;" edge="1" parent="-wKdD1VKQordn2tFMaNz-1" source="wks1egdlLgKaKfjmOBUZ-31" target="C3rFUJOiMu-fp5CJjSKa-0">
          <mxGeometry relative="1" as="geometry">
            <mxPoint x="645.5" y="610" as="targetPoint" />
          </mxGeometry>
        </mxCell>
        <mxCell id="C3rFUJOiMu-fp5CJjSKa-4" value="true" style="edgeLabel;html=1;align=center;verticalAlign=middle;resizable=0;points=[];" vertex="1" connectable="0" parent="Bv9ZyaNxrl_WctDnyPcF-0">
          <mxGeometry x="-0.5286" y="4" relative="1" as="geometry">
            <mxPoint x="6" y="-4" as="offset" />
          </mxGeometry>
        </mxCell>
        <mxCell id="C3rFUJOiMu-fp5CJjSKa-5" style="edgeStyle=orthogonalEdgeStyle;rounded=0;orthogonalLoop=1;jettySize=auto;html=1;exitX=1;exitY=0.5;exitDx=0;exitDy=0;entryX=1;entryY=0.5;entryDx=0;entryDy=0;" edge="1" parent="-wKdD1VKQordn2tFMaNz-1" source="wks1egdlLgKaKfjmOBUZ-31" target="cykYnYHPebJqiTs9cDRE-1">
          <mxGeometry relative="1" as="geometry">
            <mxPoint x="1022.5" y="951" as="targetPoint" />
            <Array as="points">
              <mxPoint x="1022.5" y="478" />
              <mxPoint x="1022.5" y="896" />
            </Array>
          </mxGeometry>
        </mxCell>
        <mxCell id="C3rFUJOiMu-fp5CJjSKa-7" value="&lt;div&gt;false&lt;/div&gt;" style="edgeLabel;html=1;align=center;verticalAlign=middle;resizable=0;points=[];" vertex="1" connectable="0" parent="C3rFUJOiMu-fp5CJjSKa-5">
          <mxGeometry x="-0.808" y="-2" relative="1" as="geometry">
            <mxPoint x="-21" y="-2" as="offset" />
          </mxGeometry>
        </mxCell>
        <mxCell id="wks1egdlLgKaKfjmOBUZ-31" value="if (LivingEntity.announceSpeaker)" style="rounded=0;whiteSpace=wrap;html=1;" vertex="1" parent="-wKdD1VKQordn2tFMaNz-1">
          <mxGeometry x="751.5" y="459" width="194" height="37" as="geometry" />
        </mxCell>
        <mxCell id="C3rFUJOiMu-fp5CJjSKa-3" style="edgeStyle=orthogonalEdgeStyle;rounded=0;orthogonalLoop=1;jettySize=auto;html=1;" edge="1" parent="-wKdD1VKQordn2tFMaNz-1" source="C3rFUJOiMu-fp5CJjSKa-0">
          <mxGeometry relative="1" as="geometry">
            <mxPoint x="644" y="763" as="targetPoint" />
          </mxGeometry>
        </mxCell>
        <mxCell id="C3rFUJOiMu-fp5CJjSKa-0" value="print(LivingEntity.name)" style="rounded=0;whiteSpace=wrap;html=1;" vertex="1" parent="-wKdD1VKQordn2tFMaNz-1">
          <mxGeometry x="575.5" y="650" width="137" height="60" as="geometry" />
        </mxCell>
        <mxCell id="C3rFUJOiMu-fp5CJjSKa-6" style="edgeStyle=orthogonalEdgeStyle;rounded=0;orthogonalLoop=1;jettySize=auto;html=1;entryX=0;entryY=0.5;entryDx=0;entryDy=0;" edge="1" parent="-wKdD1VKQordn2tFMaNz-1" source="C3rFUJOiMu-fp5CJjSKa-1" target="cykYnYHPebJqiTs9cDRE-1">
          <mxGeometry relative="1" as="geometry">
            <mxPoint x="737.5" y="896" as="targetPoint" />
            <Array as="points">
              <mxPoint x="634.5" y="896" />
            </Array>
          </mxGeometry>
        </mxCell>
        <mxCell id="C3rFUJOiMu-fp5CJjSKa-1" value="print(&quot;: &quot;)" style="rounded=0;whiteSpace=wrap;html=1;" vertex="1" parent="-wKdD1VKQordn2tFMaNz-1">
          <mxGeometry x="566" y="764" width="137" height="60" as="geometry" />
        </mxCell>
        <mxCell id="C3rFUJOiMu-fp5CJjSKa-2" value=": character not in joestian " style="text;html=1;strokeColor=none;fillColor=none;align=center;verticalAlign=middle;whiteSpace=wrap;rounded=0;" vertex="1" parent="-wKdD1VKQordn2tFMaNz-1">
          <mxGeometry x="714" y="784" width="85" height="20" as="geometry" />
        </mxCell>
        <mxCell id="C3rFUJOiMu-fp5CJjSKa-8" value="&lt;div&gt;Create LivingEntity object aurthurDent&lt;br&gt;&lt;/div&gt;&lt;div&gt;name = &quot;Arthur Dent&quot;&lt;/div&gt;&lt;div&gt;species = human&lt;/div&gt;&lt;div&gt;pronoun = &quot;he&quot;&lt;/div&gt;&lt;div&gt;possessivePronoun = &quot;his&quot;&lt;br&gt;&lt;/div&gt;&lt;div&gt;age = 37&lt;/div&gt;&lt;div&gt;arms = 2&lt;/div&gt;&lt;div&gt;legs = 2&lt;/div&gt;&lt;div&gt;heads = 1&lt;/div&gt;&lt;div&gt;announceSpeaker = true&lt;br&gt;&lt;/div&gt;" style="rounded=0;whiteSpace=wrap;html=1;" vertex="1" parent="-wKdD1VKQordn2tFMaNz-1">
          <mxGeometry x="-499" y="1471" width="230" height="151" as="geometry" />
        </mxCell>
      </root>
    </mxGraphModel>
  </diagram>
</mxfile>
